<?xml version="1.0" standalone="no"?>
<!DOCTYPE svg PUBLIC "-//W3C//DTD SVG 20010904//EN"
 "http://www.w3.org/TR/2001/REC-SVG-20010904/DTD/svg10.dtd">
<svg version="1.0" xmlns="http://www.w3.org/2000/svg"
 width="8662.000000pt" height="8662.000000pt" viewBox="0 0 8662.000000 8662.000000"
 preserveAspectRatio="xMidYMid meet">

<g transform="translate(0.000000,8662.000000) scale(0.100000,-0.100000)"
fill="#000000" stroke="none">
<path d="M46805 78774 c-1124 -498 -2281 -1262 -3540 -2338 -267 -228 -423
-385 -874 -881 -200 -220 -385 -422 -410 -450 -26 -27 -109 -120 -186 -205
-77 -85 -160 -177 -186 -205 -25 -27 -133 -147 -240 -265 -107 -118 -318 -352
-469 -519 -418 -463 -470 -522 -470 -536 0 -7 -3 -22 -7 -32 -4 -10 46 31 111
90 1266 1155 2431 1435 3371 809 395 -263 664 -593 784 -960 171 -522 57
-1123 -339 -1785 -165 -277 -437 -641 -659 -880 l-26 -29 55 23 c114 45 279
99 395 128 186 47 290 59 481 57 l170 -1 117 -59 c557 -280 929 -680 1042
-1121 10 -38 21 -73 25 -78 3 -4 49 11 101 34 208 90 439 188 517 219 97 39
59 46 347 -67 546 -214 1105 -483 1562 -754 190 -112 208 -124 465 -295 125
-84 226 -149 224 -145 -8 12 -85 397 -115 571 -36 211 -77 519 -91 690 -5 69
-12 157 -16 195 -11 136 -5 569 10 725 54 544 210 940 477 1211 181 183 410
296 738 366 114 25 146 27 341 28 171 0 232 -4 300 -18 116 -25 281 -81 376
-127 44 -21 81 -37 82 -35 12 12 -247 794 -385 1164 -831 2234 -2016 4015
-3478 5227 -163 135 -408 324 -420 324 -5 0 -86 -34 -180 -76z"/>
<path d="M34090 76389 c-464 -56 -782 -390 -925 -970 -33 -134 -81 -427 -71
-436 2 -3 55 -1 118 4 l113 8 8 65 c4 36 16 115 28 175 105 569 366 883 766
924 185 19 346 -22 501 -128 65 -44 196 -168 254 -241 121 -151 277 -437 381
-700 l54 -135 122 -16 c67 -8 124 -13 126 -9 5 8 -88 253 -149 395 -193 445
-452 779 -731 942 -172 101 -396 147 -595 122z"/>
<path d="M38395 75835 c-454 -77 -844 -464 -1136 -1127 -21 -49 -39 -95 -39
-101 0 -8 44 -26 104 -44 l105 -30 105 211 c159 320 305 522 483 666 99 80
249 158 358 186 95 25 312 25 412 1 368 -88 574 -287 676 -652 45 -160 52
-225 52 -490 0 -259 -7 -336 -51 -598 -14 -82 -24 -150 -22 -151 23 -18 201
-107 205 -102 10 9 50 226 75 401 19 136 22 203 23 445 0 255 -3 297 -23 405
-82 431 -287 722 -616 875 -221 103 -486 142 -711 105z"/>
<path d="M57705 75274 c-154 -25 -342 -105 -465 -197 -405 -301 -667 -874
-804 -1757 -27 -173 -70 -569 -63 -576 8 -8 229 40 232 50 2 6 10 85 20 176
85 847 303 1484 619 1804 94 95 175 153 290 206 130 60 199 74 371 75 179 0
224 -9 363 -76 87 -42 115 -62 185 -132 200 -198 331 -498 411 -937 42 -231
76 -578 76 -778 l0 -93 113 3 112 4 3 79 c4 105 -14 370 -39 575 -76 619 -246
1051 -515 1312 -150 146 -300 224 -507 263 -97 18 -291 18 -402 -1z"/>
<path d="M29675 74656 c-223 -37 -410 -139 -582 -319 -201 -209 -299 -440
-319 -749 -21 -331 102 -777 340 -1233 80 -154 212 -379 288 -493 l50 -74 69
103 70 103 -32 50 c-195 307 -359 636 -446 891 -77 228 -107 392 -106 585 0
150 17 250 63 367 97 250 330 464 580 529 77 21 256 23 342 5 225 -48 454
-164 725 -367 100 -76 306 -251 325 -279 9 -12 172 151 163 164 -8 14 -224
203 -305 267 -204 161 -465 313 -660 384 -180 65 -410 92 -565 66z"/>
<path d="M33830 74567 c-3 -2 -104 -7 -225 -11 -450 -13 -1157 -78 -1194 -109
-358 -306 -1008 -944 -1363 -1337 -1363 -1512 -2289 -3171 -2740 -4910 -31
-121 -63 -221 -85 -263 -59 -117 -122 -315 -148 -462 -2 -16 -7 -39 -9 -50
-44 -221 -97 -706 -112 -1030 -3 -77 -7 -151 -9 -164 -15 -97 -27 -1742 -13
-1757 2 -2 56 -6 119 -9 277 -14 476 -27 629 -41 1634 -151 3167 -647 4603
-1490 86 -51 154 -87 150 -81 -4 7 -100 154 -213 327 -1289 1968 -2007 3360
-2190 4251 -50 243 -59 384 -41 630 28 370 39 659 46 1234 9 818 14 964 41
1240 93 958 496 1505 1449 1966 502 243 991 398 1460 465 152 21 580 30 731
14 684 -69 1309 -354 2011 -916 195 -157 371 -309 639 -552 114 -103 247 -220
298 -260 185 -148 355 -334 498 -542 597 -870 1042 -2467 1327 -4760 45 -362
101 -872 128 -1172 9 -109 20 -198 24 -198 3 0 48 62 100 137 1027 1498 2548
2841 4424 3908 66 37 122 69 123 71 19 14 -461 619 -694 874 -22 25 -110 121
-195 215 -85 93 -229 246 -320 340 -91 93 -240 253 -330 355 -479 539 -1006
1054 -1519 1481 -1480 1233 -3126 2033 -4916 2388 -527 105 -1022 167 -1604
201 -182 11 -872 24 -880 17z"/>
<path d="M62210 73735 c-240 -46 -513 -186 -763 -393 -122 -100 -336 -310
-455 -447 -53 -60 -104 -120 -114 -131 -19 -21 -19 -22 72 -94 50 -40 92 -71
93 -69 10 15 122 145 167 194 354 386 674 617 968 697 59 17 106 21 207 22
145 0 201 -12 318 -70 93 -47 132 -74 205 -147 106 -103 175 -239 206 -407 21
-107 21 -340 1 -479 -47 -320 -177 -707 -390 -1163 -87 -187 -87 -187 -69
-212 42 -55 129 -155 136 -155 9 -1 36 51 139 264 178 369 312 743 379 1050
70 325 69 641 -1 872 -24 77 -85 204 -132 272 -45 66 -172 191 -246 241 -86
57 -209 114 -306 140 -105 28 -308 36 -415 15z"/>
<path d="M42721 73689 c-455 -51 -988 -306 -1566 -749 -159 -122 -222 -176
-215 -182 3 -3 45 -35 94 -71 l89 -67 46 39 c230 190 573 420 821 549 550 284
1000 333 1363 145 151 -78 254 -192 298 -332 27 -85 29 -259 4 -376 -75 -359
-335 -831 -749 -1360 -69 -88 -125 -165 -123 -171 1 -6 35 -46 75 -89 l73 -78
32 38 c80 98 237 303 331 435 441 620 651 1144 607 1515 -27 231 -125 404
-304 537 -133 99 -288 165 -468 202 -97 20 -300 27 -408 15z"/>
<path d="M53553 73190 c-337 -48 -555 -224 -656 -530 -74 -222 -81 -533 -21
-900 16 -96 64 -322 69 -328 6 -7 205 110 205 119 0 5 -11 65 -25 132 -49 248
-67 460 -53 653 20 295 123 482 311 569 122 56 281 76 447 56 264 -32 473
-139 695 -356 47 -46 166 -190 209 -253 l47 -68 104 35 c57 20 106 39 110 43
9 9 -78 136 -176 257 -238 297 -540 492 -859 556 -92 18 -323 27 -407 15z"/>
<path d="M34255 72649 c-513 -28 -1083 -198 -1674 -499 -302 -154 -514 -303
-696 -491 -176 -182 -287 -367 -364 -605 -109 -342 -135 -633 -146 -1659 -6
-547 -17 -925 -36 -1180 -21 -296 -22 -444 -5 -565 130 -894 951 -2475 2432
-4680 127 -190 275 -408 328 -485 l96 -139 188 -141 c528 -396 948 -761 1449
-1260 166 -165 300 -298 298 -295 -1 3 -68 118 -147 255 -1496 2584 -2593
4639 -3057 5723 -460 1075 -595 1919 -399 2497 38 115 124 280 190 370 309
416 904 646 1673 646 455 1 838 -88 1240 -287 355 -176 673 -413 1036 -774
255 -253 409 -426 837 -940 89 -107 194 -231 233 -275 417 -470 793 -1366
1078 -2570 104 -441 241 -1141 292 -1488 7 -48 16 -90 20 -93 5 -3 22 21 38
53 16 32 62 117 103 189 l74 132 -9 103 c-299 3727 -933 6054 -1842 6769 -44
34 -183 156 -310 269 -383 345 -534 474 -750 642 -553 430 -1059 670 -1591
753 -82 13 -416 39 -434 34 -3 0 -68 -4 -145 -9z"/>
<path d="M58832 72590 c-2238 -98 -4098 -619 -5767 -1614 -137 -82 -254 -144
-310 -165 -292 -108 -679 -392 -1260 -925 -376 -345 -1050 -1029 -1397 -1418
l-68 -75 0 -61 0 -61 -100 -133 -99 -133 37 -34 c20 -19 107 -99 192 -177 449
-411 899 -933 1252 -1454 699 -1029 1193 -2237 1453 -3550 20 -102 39 -192 42
-200 3 -8 28 113 54 270 439 2562 902 4328 1393 5309 187 373 341 585 575 794
280 248 341 307 1016 978 582 577 725 712 918 862 747 582 1467 632 2612 180
431 -170 836 -399 1150 -649 135 -108 375 -346 476 -474 449 -564 681 -1224
784 -2230 14 -142 48 -587 60 -805 4 -60 13 -157 21 -215 79 -587 -106 -1319
-567 -2241 -576 -1153 -1534 -2533 -2954 -4254 -77 -94 -145 -177 -152 -185
-10 -13 22 -10 170 16 602 107 1106 164 1792 206 229 13 1062 17 1330 5 972
-42 1918 -173 2907 -401 108 -26 201 -46 206 -46 5 0 14 21 18 47 9 45 11 48
57 64 55 20 80 44 107 106 42 95 93 390 125 718 3 33 8 78 10 100 2 22 7 83
10 135 4 52 8 110 10 127 2 18 6 110 10 205 4 95 9 184 11 198 2 14 7 246 10
515 3 270 10 564 14 655 11 225 5 1269 -9 1460 -32 448 -63 745 -112 1080
-276 1896 -966 3572 -2079 5050 -596 792 -1349 1553 -2194 2218 -258 203 -233
189 -356 196 -180 10 -1206 15 -1398 6z"/>
<path d="M50515 71549 c-313 -48 -602 -259 -720 -526 -57 -127 -70 -203 -70
-398 0 -231 30 -379 131 -648 72 -194 242 -535 349 -703 l37 -58 79 85 c43 46
78 87 79 90 0 3 -32 61 -72 130 -129 224 -258 515 -312 701 -64 222 -82 418
-52 569 33 164 126 306 260 398 64 44 199 106 266 122 81 19 203 15 280 -10
152 -48 309 -191 453 -411 57 -88 165 -297 212 -410 15 -36 30 -68 34 -72 10
-11 181 130 181 150 0 9 -38 94 -84 187 -184 373 -389 615 -620 729 -50 26
-117 53 -149 61 -77 19 -208 26 -282 14z"/>
<path d="M57886 70939 c-258 -27 -505 -120 -746 -281 -252 -168 -347 -255
-1045 -948 -597 -593 -735 -725 -1022 -983 -202 -181 -311 -324 -457 -595
-560 -1042 -1083 -3134 -1582 -6322 l-66 -425 11 -195 c66 -1127 19 -2185
-144 -3234 -14 -88 -24 -161 -22 -162 1 -2 33 124 71 279 903 3726 1570 6211
2088 7777 232 701 383 1082 593 1500 449 891 959 1378 1537 1466 132 20 345
13 473 -16 395 -89 817 -342 1191 -715 235 -234 392 -452 534 -740 206 -418
302 -841 331 -1458 14 -315 2 -659 -47 -1290 -13 -175 -24 -346 -24 -380 0
-219 -72 -580 -180 -907 -296 -895 -956 -2056 -1933 -3400 -74 -102 -134 -186
-132 -188 1 -2 74 15 161 37 151 38 161 42 192 78 277 315 926 1113 1293 1588
1638 2121 2498 3711 2580 4769 11 142 8 200 -20 451 -6 50 -18 203 -26 340
-69 1099 -185 1658 -452 2187 -334 661 -917 1148 -1793 1496 -556 220 -1002
309 -1364 271z"/>
<path d="M65055 70503 c-319 -41 -724 -190 -1099 -404 -139 -80 -396 -243
-396 -252 0 -7 102 -171 116 -186 2 -2 50 26 106 62 352 223 612 355 890 452
383 134 731 139 981 14 181 -91 338 -258 431 -459 48 -104 66 -178 73 -295 28
-489 -423 -1053 -1312 -1645 -93 -62 -172 -115 -174 -116 -7 -6 73 -214 82
-214 13 0 243 149 391 255 287 204 450 339 656 545 160 160 244 260 342 407
317 473 330 945 39 1354 -191 268 -428 420 -738 474 -78 14 -307 18 -388 8z"/>
<path d="M28075 70400 c-192 -22 -385 -85 -536 -176 -371 -224 -565 -560 -508
-880 47 -270 225 -534 555 -823 116 -102 284 -236 284 -226 0 2 14 57 31 121
l32 116 -34 27 c-243 189 -445 402 -550 582 -92 159 -120 341 -71 474 31 83
100 181 186 263 266 252 602 342 1036 277 l35 -6 49 106 c27 57 48 107 45 109
-2 3 -51 11 -109 20 -134 20 -342 27 -445 16z"/>
<path d="M44430 70135 c-8 -2 -49 -9 -90 -15 -41 -7 -124 -28 -185 -47 -122
-39 -367 -142 -363 -153 2 -4 32 -46 68 -93 42 -56 70 -85 80 -83 8 3 70 27
136 55 287 119 528 141 683 61 83 -42 114 -124 114 -300 0 -140 -17 -256 -69
-459 -19 -74 -33 -136 -31 -137 3 -3 254 122 266 132 12 10 53 247 63 365 33
388 -98 598 -415 663 -66 14 -211 20 -257 11z"/>
<path d="M34125 69793 c-22 -2 -101 -12 -175 -23 -695 -103 -1063 -407 -1157
-958 -22 -133 -22 -416 1 -587 49 -367 165 -778 351 -1250 435 -1099 1608
-3291 3553 -6635 107 -184 199 -339 204 -345 5 -5 -74 159 -175 365 -867 1764
-1435 3190 -1723 4320 -64 251 -136 602 -159 780 -21 164 -25 181 -74 340 -93
306 -142 576 -142 791 -1 411 145 648 536 867 123 69 467 226 557 254 93 29
267 31 368 4 219 -58 484 -245 713 -504 292 -329 494 -625 980 -1431 120 -201
240 -396 266 -435 285 -428 538 -1120 746 -2041 34 -149 44 -184 50 -162 9 33
7 47 -51 427 -246 1602 -583 2822 -986 3575 -87 161 -236 386 -322 485 -36 41
-186 219 -334 395 -354 421 -499 584 -711 796 -405 404 -766 660 -1141 808
-323 127 -569 172 -930 169 -113 -1 -223 -3 -245 -5z"/>
<path d="M57100 68470 c-444 -94 -852 -520 -1240 -1290 -156 -311 -272 -589
-428 -1030 -358 -1011 -856 -2749 -1452 -5070 -167 -650 -490 -1954 -487
-1963 1 -5 18 39 36 99 112 363 414 1251 583 1709 586 1590 1179 2813 1714
3532 46 62 100 145 120 185 172 341 354 616 516 775 106 105 173 155 273 203
251 121 478 106 966 -64 251 -87 283 -101 360 -152 281 -187 406 -576 370
-1154 -27 -419 -91 -778 -296 -1660 -40 -173 -90 -394 -110 -490 -119 -568
-401 -1186 -943 -2065 -58 -93 -121 -195 -142 -225 -103 -154 -59 -100 132
160 1334 1826 2069 3251 2138 4145 16 206 59 813 71 1005 15 232 15 781 0 950
-28 322 -74 555 -157 810 -155 471 -440 870 -849 1189 -438 342 -830 475
-1175 401z"/>
<path d="M23127 68314 c-1 -1 -162 -4 -357 -8 -195 -4 -386 -9 -425 -11 -38
-3 -158 -10 -265 -15 -1505 -80 -2957 -338 -4175 -744 -287 -96 -655 -232
-671 -249 -22 -22 -82 -512 -111 -907 -18 -255 -25 -1209 -11 -1527 30 -641
111 -1384 233 -2128 24 -148 45 -289 47 -313 1 -24 5 -45 9 -48 4 -2 49 14 99
36 94 41 283 103 375 122 28 5 69 14 93 19 231 47 532 49 748 4 887 -182 1441
-1038 1630 -2515 8 -69 17 -126 18 -127 1 -2 20 43 40 99 113 304 273 571 457
762 75 79 85 85 183 125 203 81 403 137 616 173 44 8 155 12 270 12 215 -1
323 -17 490 -74 46 -16 85 -28 87 -27 1 2 18 95 38 207 80 453 196 993 316
1475 95 380 281 1042 296 1055 16 13 610 192 858 259 596 160 1197 286 1715
361 118 17 230 33 249 36 l33 5 -154 157 c-536 545 -842 1060 -909 1531 -17
123 -7 364 21 470 100 381 417 784 778 989 167 96 371 164 573 192 90 13 399
16 449 5 16 -4 30 -4 30 -2 0 3 -46 45 -102 93 -57 49 -157 142 -223 207
l-120 119 -160 18 c-741 87 -1724 151 -2450 160 -296 3 -616 6 -618 4z"/>
<path d="M26427 66994 c-264 -48 -471 -228 -587 -511 -54 -134 -65 -195 -65
-363 1 -149 2 -159 33 -249 139 -401 567 -727 1299 -989 143 -52 396 -132 415
-132 8 0 9 36 4 117 -4 65 -8 118 -9 119 -1 1 -74 26 -162 54 -365 120 -664
255 -885 401 -92 61 -154 112 -235 193 -115 116 -160 181 -203 294 -23 59 -26
82 -27 197 0 112 3 140 24 200 46 134 99 225 175 301 102 101 194 140 351 151
221 14 494 -60 837 -229 88 -43 161 -78 162 -78 2 0 6 42 10 93 4 50 9 106 12
123 6 30 5 31 -113 86 -424 200 -760 272 -1036 222z"/>
<path d="M70285 66409 c-49 -5 -214 -20 -365 -34 -151 -14 -501 -48 -776 -75
-276 -28 -507 -50 -514 -50 -9 0 -8 -7 4 -22 182 -249 282 -455 351 -723 53
-207 69 -334 69 -550 0 -200 -8 -272 -51 -440 -123 -475 -471 -864 -1020
-1139 -376 -188 -869 -332 -1400 -409 -84 -12 -153 -24 -153 -27 0 -3 53 -24
119 -48 240 -87 497 -228 671 -369 135 -110 153 -134 214 -283 55 -136 113
-315 140 -432 51 -224 64 -501 31 -693 -20 -118 -79 -304 -128 -402 -91 -180
-263 -386 -432 -518 -251 -195 -597 -359 -930 -439 -99 -24 -705 -253 -705
-266 0 -3 42 -18 93 -33 497 -150 1249 -423 1776 -645 l94 -40 76 73 c315 303
658 509 988 592 98 25 125 28 293 28 172 0 193 -2 295 -29 423 -110 837 -429
1040 -801 123 -226 204 -541 205 -804 l0 -54 51 79 c246 377 564 709 869 907
103 66 279 155 378 191 587 210 1258 64 1662 -360 88 -92 196 -238 261 -353
l54 -94 93 194 c882 1827 1360 3548 1443 5199 15 293 6 925 -15 1180 -28 320
-72 643 -126 928 -11 57 -20 105 -20 107 0 2 -82 31 -182 64 -584 190 -1181
327 -1878 430 -389 58 -732 93 -1320 136 -397 28 -1073 41 -1255 24z"/>
<path d="M65302 66369 c-117 -3 -215 -9 -218 -12 -5 -5 12 -96 36 -187 l9 -35
378 3 c209 2 452 -1 543 -7 924 -62 1510 -281 1802 -674 139 -188 199 -415
154 -583 -126 -475 -985 -832 -2489 -1034 l-88 -12 3 -115 3 -115 55 7 c844
99 1614 294 2065 522 311 158 523 347 625 558 52 106 70 187 70 316 0 251
-119 515 -330 730 -456 464 -1328 676 -2618 638z"/>
<path d="M65420 62418 c-1 -24 -3 -76 -6 -115 l-6 -73 29 0 c15 0 103 -11 196
-25 608 -89 994 -262 1113 -497 57 -112 13 -230 -145 -388 -213 -213 -578
-445 -1111 -706 -129 -63 -246 -120 -260 -127 -19 -10 -26 -24 -32 -62 -5 -28
-15 -85 -24 -129 -8 -43 -13 -81 -10 -83 7 -8 252 105 516 238 789 396 1205
727 1305 1038 13 39 16 76 13 145 -3 81 -8 100 -41 167 -164 331 -626 548
-1372 644 -172 22 -165 23 -165 -27z"/>
<path d="M18225 61769 c-103 -13 -227 -54 -339 -112 -559 -286 -878 -1003
-956 -2147 -14 -214 -23 -720 -12 -720 10 0 210 75 217 81 2 3 7 99 10 215 11
470 39 767 101 1089 104 533 302 942 560 1156 229 189 511 260 706 178 380
-161 670 -798 849 -1864 17 -99 32 -181 33 -183 5 -4 210 30 218 37 15 13 -70
468 -142 766 -194 795 -477 1279 -846 1446 -118 54 -268 75 -399 58z"/>
<path d="M21590 60451 c-210 -72 -369 -232 -499 -501 -66 -137 -125 -300 -108
-301 21 -1 131 3 157 6 14 1 37 3 52 4 23 1 30 9 48 59 87 232 222 416 353
482 124 62 219 28 382 -134 92 -92 218 -252 275 -348 19 -32 27 -38 56 -38 26
0 34 4 34 18 1 9 7 71 15 137 l13 120 -70 93 c-82 108 -199 230 -278 289 -30
23 -91 59 -135 80 -73 34 -88 38 -175 40 -52 1 -106 -1 -120 -6z"/>
<path d="M13805 59994 c-107 -15 -163 -27 -232 -50 -294 -99 -567 -334 -692
-597 -220 -464 -105 -1099 342 -1882 127 -224 386 -615 407 -615 6 0 124 94
164 130 4 5 -57 106 -137 227 -356 536 -562 984 -633 1378 -24 137 -25 363 -1
467 40 173 112 305 231 424 90 90 168 146 283 203 343 171 724 84 1128 -259
73 -62 264 -253 340 -340 164 -187 407 -532 610 -864 9 -14 22 -10 112 37
l103 53 -51 84 c-172 287 -437 654 -632 875 -350 398 -718 647 -1051 710 -78
15 -244 26 -291 19z"/>
<path d="M22237 59354 c-1 -1 -58 -5 -127 -8 -69 -4 -134 -9 -145 -11 -11 -2
-56 -7 -100 -10 -183 -13 -883 -100 -1055 -130 -43 -8 -257 -34 -460 -55
-1988 -214 -3768 -815 -5274 -1780 -1550 -993 -2845 -2409 -3820 -4178 l-57
-102 16 -148 c79 -734 211 -1503 363 -2119 l28 -113 -1454 0 -1454 0 -60 36
c-307 186 -484 418 -538 704 -15 80 -13 265 4 346 101 480 638 756 1591 818
289 19 846 13 1054 -11 l54 -6 -6 54 c-4 30 -9 82 -13 116 -5 50 -10 62 -27
67 -11 3 -164 10 -341 17 -588 23 -1078 -16 -1476 -116 -508 -127 -838 -354
-991 -679 -75 -160 -105 -346 -88 -542 24 -280 127 -500 333 -711 l91 -93
-3717 0 -3718 0 0 -2405 0 -2405 1575 0 c866 0 1575 3 1575 6 0 3 -117 126
-259 275 -290 300 -393 419 -486 559 -134 202 -195 357 -202 520 -8 172 15
235 192 513 91 144 189 282 233 330 l26 27 469 0 470 0 -7 -342 c-11 -639 -18
-2045 -19 -4358 -1 -1945 1 -2407 16 -2960 32 -1235 19 -1967 -43 -2355 -38
-240 -87 -361 -195 -488 -96 -112 -217 -203 -675 -506 l-425 -281 1980 0 1980
0 165 -156 c386 -365 1047 -936 1275 -1101 115 -83 1116 -730 2235 -1445 1249
-797 1141 -731 1156 -711 7 10 14 21 14 25 0 13 98 176 155 259 84 120 277
310 400 392 234 155 503 246 815 276 197 19 525 0 762 -44 83 -16 336 -76 409
-98 l46 -14 152 271 152 271 -17 64 c-21 78 -20 101 6 255 81 468 247 831 496
1086 l74 76 -117 125 c-65 69 -174 188 -242 264 -69 77 -137 154 -152 170
l-28 30 15529 0 c8540 0 15526 3 15524 7 -2 3 -73 55 -157 114 -508 358 -591
420 -634 474 -77 95 -199 371 -232 525 -6 28 -42 253 -81 500 -139 901 -277
1763 -445 2785 -108 659 -213 1301 -360 2200 -47 289 -105 649 -130 800 -519
3196 -771 4910 -792 5398 l-6 152 38 56 c46 66 85 94 225 159 156 73 933 470
1275 652 l100 53 -13068 0 -13067 0 -11 28 c-45 114 -56 366 -25 562 30 190
94 494 116 553 12 32 44 91 71 132 161 240 465 379 959 440 238 30 968 30
1255 0 22 -2 74 -6 115 -9 41 -3 251 -19 465 -36 215 -16 455 -34 535 -40 246
-18 543 -76 850 -166 142 -42 478 -154 599 -200 63 -24 117 -42 119 -39 2 2
-9 27 -25 55 l-28 52 -230 110 c-1364 652 -2401 1000 -3180 1067 -147 13 -354
13 -455 1 -80 -10 -209 -21 -550 -45 -1140 -82 -1747 -226 -2265 -538 -414
-249 -750 -629 -975 -1102 -129 -271 -182 -469 -184 -688 l-1 -137 -170 2
-170 3 -3 75 c-13 297 101 693 305 1055 433 770 1043 1227 1949 1460 411 106
796 158 1634 220 184 14 378 30 430 36 131 15 460 5 655 -21 720 -93 1664
-405 2774 -916 124 -57 226 -103 227 -101 3 3 -152 395 -169 426 -12 25 -173
121 -607 366 -1795 1010 -3213 1618 -4270 1829 -312 63 -465 79 -740 79 -261
0 -390 -15 -540 -63 -36 -11 -219 -54 -407 -95 -580 -128 -869 -203 -1178
-309 -1250 -426 -1899 -1206 -2194 -2636 -51 -248 -73 -428 -78 -652 -8 -289
18 -488 87 -685 11 -31 20 -61 20 -65 0 -4 -80 -8 -178 -8 l-178 0 -27 108
c-54 216 -68 351 -66 597 3 275 32 508 104 850 140 653 371 1199 690 1630 364
491 830 837 1475 1095 367 146 784 262 1498 415 139 30 290 66 335 79 199 60
362 80 637 80 246 0 365 -11 627 -54 1083 -181 2544 -783 4378 -1805 171 -95
338 -189 371 -208 32 -20 60 -34 61 -33 1 1 -18 65 -43 141 -343 1061 -586
2400 -639 3520 -4 72 -8 144 -11 160 -2 17 -7 262 -11 545 -7 595 3 943 43
1463 l6 78 -36 -3 c-20 -1 -38 -3 -39 -4z m4823 -9107 c273 -259 446 -481 530
-677 60 -143 114 -424 140 -730 17 -208 19 -238 25 -425 4 -99 8 -193 10 -210
7 -47 14 -1021 21 -2595 3 -795 7 -1474 9 -1510 1 -36 5 -393 9 -795 4 -401 9
-777 11 -835 2 -58 7 -334 10 -615 3 -280 7 -577 10 -660 23 -753 27 -2089 7
-2365 -33 -460 -85 -724 -180 -920 -65 -136 -193 -240 -442 -360 -134 -65
-196 -90 -435 -174 l-210 -74 -17 21 c-9 12 -64 114 -122 227 -389 761 -611
1646 -681 2720 -10 145 -56 478 -86 615 -142 647 -359 1177 -694 1690 -132
201 -304 430 -414 548 -24 26 -42 49 -40 51 2 2 29 16 59 31 331 166 680 395
945 620 464 395 772 852 895 1328 54 212 71 336 77 562 12 476 -57 953 -196
1358 -11 31 -19 58 -18 58 1 1 45 8 97 15 l95 12 -101 -5 -100 -5 -29 74 c-15
40 -48 115 -72 167 -24 52 -42 95 -41 96 3 2 725 25 788 25 l35 0 -60 53 c-33
28 -121 106 -195 173 l-135 121 -302 27 c-167 15 -307 25 -311 22 -9 -5 -50
86 -189 419 -186 444 -233 622 -233 870 1 270 50 385 252 582 178 174 296 254
863 586 l180 105 50 -46 c28 -25 111 -104 185 -175z m9737 47 c504 -190 645
-250 809 -341 164 -90 255 -185 338 -350 25 -49 26 -61 26 -201 0 -210 -37
-720 -95 -1312 -37 -368 -46 -462 -95 -915 -16 -148 -32 -292 -34 -320 -5 -44
-30 -273 -80 -725 -34 -304 -102 -893 -151 -1310 -14 -113 -34 -286 -45 -385
-11 -99 -39 -326 -60 -505 -150 -1228 -148 -1206 -200 -1625 -34 -269 -43
-338 -105 -820 -24 -187 -62 -484 -85 -660 -22 -176 -45 -347 -50 -380 -8 -51
-28 -203 -81 -610 -5 -44 -16 -125 -25 -180 -8 -55 -35 -253 -60 -440 -55
-414 -152 -1076 -195 -1345 -23 -140 -33 -162 -210 -470 -52 -91 -117 -204
-145 -252 -27 -49 -52 -88 -55 -88 -6 0 -125 197 -211 350 -176 310 -366 776
-479 1175 -125 440 -229 1039 -263 1520 -31 424 -71 688 -157 1030 -174 694
-534 1387 -1002 1933 -49 57 -87 105 -85 106 1 2 57 31 123 66 441 233 766
465 1074 765 367 358 592 733 706 1180 50 195 67 332 70 565 9 619 -92 1131
-322 1640 -380 837 -535 1209 -587 1410 -70 263 -75 540 -14 695 63 161 263
363 541 548 126 84 706 426 724 426 6 1 222 -78 480 -175z m-14020 53 c-69
-80 -150 -216 -191 -318 -122 -305 -136 -658 -42 -1063 9 -38 14 -71 12 -73
-6 -6 -460 114 -731 193 -358 104 -370 107 -373 110 -9 6 31 237 54 319 56
199 119 318 227 432 125 131 172 154 647 309 228 74 420 137 425 139 6 2 11 4
13 4 2 1 -17 -23 -41 -52z m9467 -14 c-260 -319 -343 -772 -237 -1292 33 -164
76 -313 161 -562 193 -566 314 -1122 371 -1714 6 -60 13 -132 16 -160 2 -27 8
-183 11 -345 l6 -295 -27 -120 c-94 -415 -299 -713 -590 -858 -38 -19 -268
-115 -510 -212 -242 -97 -466 -188 -497 -201 -32 -13 -59 -24 -61 -24 -7 0 10
3564 18 3715 2 39 6 241 10 450 3 209 10 430 16 490 42 450 204 754 474 893
46 24 876 302 883 296 2 -1 -18 -29 -44 -61z m-14793 40 c13 -16 12 -17 -3 -4
-10 7 -18 15 -18 17 0 8 8 3 21 -13z m-6361 -128 c10 -12 10 -15 -4 -15 -9 0
-16 7 -16 15 0 8 2 15 4 15 2 0 9 -7 16 -15z m-580 -1950 l0 -1855 -392 0
c-216 0 -524 3 -684 7 l-291 6 52 111 c63 132 105 262 135 411 32 156 38 448
15 640 -68 569 -255 892 -584 1009 l-86 31 -715 6 c-393 4 -765 10 -827 14
l-112 8 -5 -34 c-9 -60 -26 -492 -37 -974 -14 -590 -6 -5844 10 -6430 34
-1267 67 -1714 167 -2227 64 -328 137 -549 260 -788 146 -283 350 -507 594
-652 41 -25 131 -78 200 -119 l125 -74 -1804 -3 c-992 -1 -1806 0 -1808 2 -2
2 10 26 26 53 125 202 195 498 233 973 17 221 17 1700 0 2425 -13 543 -19
4599 -7 5295 3 173 7 680 10 1125 3 446 8 946 12 1113 l6 303 -834 -3 c-939
-3 -852 4 -974 -83 -94 -66 -196 -190 -352 -425 -194 -291 -267 -430 -308
-584 -92 -340 -26 -684 205 -1073 l32 -53 -686 0 -686 0 0 1843 c0 1014 3
1847 7 1850 3 4 2053 7 4555 7 l4548 0 0 -1855z m4650 1849 c0 -3 -15 -24 -34
-47 -182 -223 -297 -657 -351 -1317 -47 -583 -54 -1011 -59 -3540 -8 -4293 26
-5390 195 -6235 95 -478 247 -832 475 -1106 130 -156 242 -244 513 -405 l184
-109 -907 -3 c-499 -1 -1312 -1 -1806 0 l-899 3 44 68 c118 183 198 489 235
900 25 275 32 682 27 1407 -4 410 -8 756 -11 770 -2 14 -7 205 -10 425 -4 220
-8 490 -11 600 -6 257 -13 1072 -21 2315 -3 542 -7 1008 -9 1037 -2 29 -6 638
-9 1355 -9 2017 -19 2328 -87 2803 -74 515 -230 845 -491 1042 -21 15 -37 31
-38 36 0 4 691 7 1535 7 844 0 1535 -3 1535 -6z m6010 -3 c0 -5 -18 -41 -40
-79 -104 -181 -184 -437 -220 -707 -34 -258 -49 -1193 -57 -3682 l-6 -1953
209 86 c115 47 488 198 829 336 815 329 817 329 931 398 407 242 666 636 800
1215 34 148 42 359 25 684 -42 793 -178 1494 -435 2246 -135 396 -172 581
-163 825 3 106 10 164 26 218 44 152 133 286 249 377 l57 45 988 0 c543 0 987
-2 987 -6 0 -3 -26 -35 -58 -73 -214 -248 -296 -454 -318 -796 -12 -194 29
-482 102 -708 65 -201 260 -671 519 -1247 76 -168 153 -348 172 -399 76 -211
140 -512 163 -773 17 -195 15 -523 -4 -650 -83 -547 -406 -1011 -999 -1436
-317 -227 -613 -385 -1109 -592 -137 -57 -248 -106 -248 -109 0 -3 109 -116
243 -251 313 -316 495 -534 678 -809 306 -462 518 -971 633 -1526 37 -178 64
-390 86 -665 81 -1012 277 -1831 616 -2575 35 -77 64 -143 64 -147 0 -5 -529
-8 -1175 -8 -1112 0 -1175 1 -1175 18 0 9 7 42 15 72 60 227 66 634 14 1110
-96 891 -377 1926 -756 2785 -249 563 -448 847 -672 958 l-85 42 -115 0 c-108
-1 -124 -3 -226 -38 -404 -139 -640 -419 -734 -873 -100 -487 -130 -1249 -90
-2334 16 -452 47 -815 90 -1075 43 -261 99 -391 246 -582 l64 -83 -1400 0
-1401 0 55 68 c192 238 299 576 354 1122 38 373 47 1201 23 2185 -6 281 -16
821 -22 1200 -5 380 -12 812 -15 960 -2 149 -7 637 -11 1085 -3 448 -7 821
-10 828 -2 7 -5 624 -6 1370 -1 1391 -8 1919 -28 2300 -43 837 -131 1221 -354
1561 -30 44 -51 83 -48 86 10 9 2742 5 2742 -4z m9480 -1 c0 -6 -12 -29 -27
-53 -76 -121 -164 -356 -202 -544 -37 -182 -50 -347 -60 -766 -19 -773 -21
-974 -28 -3014 l-6 -2042 184 75 c296 121 937 381 1302 528 390 157 418 171
558 265 370 248 619 659 730 1204 l31 152 -6 265 c-19 877 -167 1699 -451
2505 -68 193 -119 385 -140 520 -17 116 -20 325 -4 411 34 196 133 362 280
469 l47 35 986 0 c542 0 986 -2 986 -5 0 -3 -30 -40 -66 -81 -118 -136 -219
-310 -257 -444 -83 -288 -70 -647 34 -1010 53 -182 252 -663 527 -1275 76
-170 151 -342 166 -380 70 -187 129 -434 163 -685 14 -105 18 -202 18 -435 0
-272 -2 -310 -23 -411 -83 -413 -300 -774 -656 -1094 -393 -353 -795 -593
-1441 -860 -137 -57 -252 -105 -254 -106 -2 -2 98 -104 221 -226 464 -460 734
-819 972 -1297 259 -517 408 -1070 451 -1671 51 -712 156 -1304 335 -1885 81
-264 229 -644 320 -826 17 -32 30 -63 30 -69 0 -7 -378 -10 -1180 -10 -649 0
-1180 1 -1180 3 0 1 7 24 15 51 93 306 74 941 -51 1666 -132 772 -400 1645
-719 2346 -228 502 -423 773 -630 875 l-89 44 -115 0 c-108 -1 -124 -3 -226
-38 -292 -101 -493 -272 -620 -532 -134 -274 -191 -649 -216 -1431 -20 -589 9
-1520 61 -2022 51 -481 111 -663 297 -894 l54 -68 -1402 0 -1401 0 40 48 c320
383 428 1041 408 2487 -4 264 -9 534 -11 600 -7 155 -22 1087 -35 2050 -5 418
-12 918 -15 1110 -7 469 -15 1758 -20 3155 -2 630 -7 1206 -10 1280 -22 496
-27 599 -36 715 -23 307 -70 594 -129 792 -52 173 -111 299 -212 450 -26 40
-48 75 -48 78 0 3 619 5 1375 5 928 0 1375 -3 1375 -10z m11950 5 c0 -2 -13
-27 -30 -54 -38 -65 -67 -135 -80 -191 -14 -67 -12 -345 5 -526 81 -859 412
-3001 1234 -8004 177 -1075 335 -2059 451 -2810 123 -793 133 -840 230 -1074
22 -53 40 -98 40 -101 0 -3 -587 -5 -1305 -5 -891 0 -1305 3 -1305 10 0 6 11
32 24 58 138 272 185 715 130 1216 -54 501 -283 1992 -590 3847 l-156 947
-173 7 c-344 14 -615 -34 -871 -155 -429 -202 -729 -560 -991 -1180 -191 -450
-308 -944 -354 -1495 -19 -220 -16 -748 5 -975 82 -894 345 -1713 706 -2200
l60 -80 -1299 0 -1300 0 44 93 c24 51 50 128 59 172 28 143 103 653 206 1395
22 162 49 358 60 435 361 2596 917 7287 1070 9020 53 608 69 1063 41 1175 -26
104 -113 273 -208 405 -24 32 -43 63 -43 67 0 4 977 8 2170 8 1194 0 2170 -2
2170 -5z m-26322 -275 c403 -269 1012 -490 1806 -654 66 -14 122 -30 126 -36
7 -12 40 -275 40 -317 0 -13 -6 -23 -14 -23 -8 0 -93 16 -188 35 -782 161
-1405 376 -1842 637 -176 105 -285 188 -423 319 l-72 68 112 84 c62 46 124 92
140 103 l27 19 76 -72 c42 -40 137 -113 212 -163z m-4673 -50 c175 -145 271
-232 292 -264 114 -171 193 -546 218 -1026 4 -63 9 -128 12 -145 2 -16 7 -341
10 -721 l5 -692 -98 -30 c-177 -54 -237 -71 -387 -107 -174 -41 -384 -81 -482
-90 -38 -4 -78 -9 -87 -11 -17 -5 -18 44 -18 924 l0 929 98 45 c127 60 257
111 417 165 72 24 135 45 142 48 7 2 -2 38 -29 107 -22 57 -41 105 -43 107 -7
7 -257 -80 -404 -140 -80 -33 -154 -63 -164 -66 -16 -5 -17 25 -15 568 l3 574
129 -4 129 -3 -5 30 c-3 20 -1 29 6 25 6 -4 128 -104 271 -223z m3903 -1153
c92 -74 217 -175 277 -226 141 -118 216 -168 362 -241 317 -157 772 -287 1393
-400 256 -46 634 -101 707 -104 l53 -1 0 -176 0 -176 -22 3 c-13 2 -124 17
-248 34 -919 125 -1620 306 -2060 531 -158 80 -236 133 -450 309 -185 151
-223 186 -216 199 2 3 7 65 11 138 4 73 8 140 10 150 2 10 4 35 4 56 1 20 3
37 6 37 3 0 81 -60 173 -133z m6207 18 c339 -38 935 -105 939 -105 8 0 118
-341 112 -347 -6 -6 -402 35 -1051 110 l-280 33 -3 172 -2 173 32 -5 c18 -3
132 -17 253 -31z m-13129 -584 c20 -2 75 -64 99 -111 89 -176 145 -560 116
-807 -30 -256 -122 -466 -292 -664 -33 -38 -204 -193 -380 -346 -176 -153
-317 -278 -312 -280 4 -1 738 -3 1631 -6 l1622 -4 0 304 0 303 23 9 c12 4 56
11 97 15 206 20 593 107 941 212 15 4 17 -50 18 -628 1 -348 4 -705 7 -793 l6
-161 -104 -61 c-557 -327 -735 -752 -509 -1213 122 -250 289 -399 536 -479
l80 -26 8 -379 c4 -208 6 -381 3 -383 -7 -8 -152 17 -275 47 -244 60 -446 144
-617 256 -114 74 -285 244 -353 349 -155 238 -241 555 -242 889 l0 124 -97
-51 c-1057 -550 -2106 -1252 -2909 -1945 l-152 -132 -3 283 c-7 654 -4 4818 3
5222 5 242 11 445 13 450 2 7 182 9 517 8 283 0 519 -2 525 -2z m9711 -353
c-3 -8 -6 -5 -6 6 -1 11 2 17 5 13 3 -3 4 -12 1 -19z m4058 -294 c330 -4 603
-9 607 -13 6 -5 58 -296 58 -325 0 -9 -1278 -1 -1325 9 -11 2 -80 4 -153 4
l-134 1 3 163 c1 89 5 166 7 171 3 5 75 6 171 2 91 -3 436 -9 766 -12z m741
-1424 c-8 -149 -70 -366 -155 -546 -95 -198 -206 -333 -361 -436 -102 -68 -75
-56 -630 -280 -245 -98 -466 -188 -492 -198 l-48 -20 -2 298 c-1 253 -1 522 2
828 l0 71 83 38 c377 173 957 404 1382 550 l210 73 8 -142 c4 -77 6 -184 3
-236z m-10936 -1247 c0 -49 3 -333 7 -632 l6 -544 -29 7 c-48 11 -146 63 -194
103 -109 90 -209 250 -246 393 -24 89 -21 208 5 291 44 139 173 290 352 413
46 31 87 56 91 56 4 0 8 -39 8 -87z m3475 -414 c304 -229 800 -582 1078 -768
l138 -92 72 2 72 2 227 -122 c125 -68 232 -120 238 -116 7 4 102 80 213 169
229 183 636 491 641 485 4 -4 12 -540 21 -1369 5 -462 9 -713 20 -1220 3 -124
8 -412 11 -640 4 -228 8 -424 10 -435 7 -32 6 -1092 0 -1180 -3 -44 -8 -132
-11 -195 -30 -597 -123 -966 -286 -1129 -108 -108 -383 -246 -728 -368 l-154
-54 -121 77 c-302 193 -795 499 -941 585 -142 83 -172 106 -265 199 -82 82
-119 128 -167 210 -171 292 -269 671 -332 1290 -18 171 -25 265 -46 590 -8
140 -16 314 -25 609 l-10 294 97 106 c479 522 989 1026 1486 1469 114 102 207
186 207 187 0 2 -64 38 -142 80 -79 43 -215 119 -303 170 l-160 94 -350 -99
c-192 -54 -431 -123 -530 -153 -99 -30 -213 -64 -252 -75 l-73 -20 0 849 0
849 113 -88 c61 -48 175 -135 252 -193z m25228 -1991 c130 -785 190 -1154 317
-1958 93 -588 239 -1599 265 -1833 19 -167 19 -450 0 -587 -18 -133 -56 -264
-103 -355 -43 -83 -134 -178 -212 -223 -44 -26 -206 -83 -357 -127 -28 -8
-276 88 -372 144 -184 108 -337 264 -473 483 -224 360 -400 933 -493 1598 -31
224 -44 746 -25 1030 30 448 124 879 282 1288 48 123 178 390 238 487 153 250
352 426 575 511 88 33 201 63 241 63 l31 1 86 -522z m-18917 -595 c83 -91 227
-344 340 -598 348 -784 622 -1755 719 -2549 41 -334 55 -704 35 -886 -18 -164
-67 -307 -122 -356 -12 -12 -96 -53 -184 -91 l-162 -70 -123 57 c-502 231
-752 413 -858 626 -60 121 -108 463 -131 919 -5 121 -13 247 -15 280 -10 114
-13 1271 -5 1445 26 510 78 848 156 1001 28 56 112 150 161 180 35 22 141 68
156 69 4 0 19 -12 33 -27z m9494 -20 c165 -188 444 -799 649 -1423 246 -751
384 -1426 432 -2115 30 -429 -22 -756 -133 -838 -15 -11 -98 -51 -184 -87
l-156 -67 -186 88 c-212 99 -293 142 -414 221 -212 139 -357 297 -407 445 -41
123 -91 566 -106 943 -4 85 -9 169 -11 185 -9 59 -12 1303 -4 1465 26 486 78
820 150 966 54 110 141 191 258 240 31 13 60 23 64 24 3 0 25 -21 48 -47z"/>
<path d="M40099 48142 c-309 -83 -482 -447 -578 -1212 -37 -297 -122 -1383
-161 -2060 -12 -213 -61 -1373 -57 -1376 1 -1 135 180 297 403 162 223 329
450 371 504 266 345 522 594 708 687 l75 37 188 3 189 4 -6 31 c-45 267 -80
546 -155 1242 -78 721 -117 952 -201 1193 -143 408 -400 617 -670 544z m131
-684 c27 -63 86 -304 109 -448 11 -69 41 -316 66 -550 53 -500 83 -763 90
-807 6 -31 4 -32 -92 -83 -114 -59 -229 -142 -366 -265 -83 -74 -97 -83 -97
-63 0 86 97 1305 121 1523 25 231 78 529 115 648 15 48 29 87 31 87 2 0 13
-19 23 -42z"/>
<path d="M53481 59084 c0 -11 3 -14 6 -6 3 7 2 16 -1 19 -3 4 -6 -2 -5 -13z"/>
<path d="M68464 58606 c-156 -41 -284 -118 -413 -247 -85 -84 -183 -217 -177
-238 6 -18 66 -318 66 -329 0 -4 23 35 50 86 133 252 281 407 455 479 165 69
407 51 585 -43 175 -92 264 -233 291 -457 18 -158 -13 -398 -81 -619 -17 -53
-30 -99 -30 -102 0 -3 54 -6 119 -6 l119 0 11 33 c23 72 62 238 77 332 23 138
23 383 0 490 -70 317 -264 514 -606 612 -67 20 -115 26 -230 29 -130 4 -155 2
-236 -20z"/>
<path d="M52801 57754 c0 -11 3 -14 6 -6 3 7 2 16 -1 19 -3 4 -6 -2 -5 -13z"/>
<path d="M71940 57749 c-92 -24 -199 -74 -294 -136 -91 -61 -258 -222 -357
-346 -96 -119 -202 -274 -195 -286 4 -7 49 -16 111 -22 2 0 29 -6 59 -13 30
-7 58 -10 63 -7 5 3 31 37 58 76 191 270 416 460 605 510 187 50 391 -26 581
-216 186 -186 294 -429 315 -715 4 -46 8 -84 9 -84 3 0 184 -65 209 -76 18 -7
19 -2 13 132 -16 353 -136 646 -361 882 -252 265 -544 372 -816 301z"/>
<path d="M10330 57015 c-224 -37 -411 -127 -554 -269 -287 -283 -370 -686
-222 -1079 181 -481 679 -1013 1476 -1577 80 -57 152 -105 160 -107 10 -2 35
28 73 89 l58 93 -23 17 c-13 9 -90 65 -173 123 -518 369 -923 746 -1153 1074
-286 409 -335 747 -152 1052 114 190 273 300 505 349 122 26 379 21 544 -9
467 -88 1091 -353 1716 -731 64 -39 119 -70 124 -70 8 0 161 154 161 163 0 16
-449 271 -715 406 -493 251 -887 394 -1273 462 -152 27 -431 34 -552 14z"/>
<path d="M68590 56717 c-4 -3 -391 -16 -500 -17 -14 0 -15 -51 -15 -417 0
-414 -6 -595 -25 -808 -42 -461 -120 -934 -226 -1373 -217 -904 -591 -1848
-1080 -2730 l-35 -63 418 279 c1838 1222 3139 1897 3987 2067 214 43 314 49
586 36 135 -7 263 -14 285 -17 22 -3 423 -7 890 -9 1050 -5 1156 -8 1435 -41
837 -100 1361 -489 1801 -1339 269 -519 452 -1059 523 -1543 l6 -42 -172 2
-171 3 -19 110 c-69 405 -253 914 -490 1358 -383 718 -804 1026 -1523 1116
-209 27 -431 33 -1280 36 -495 2 -983 8 -1085 14 -374 22 -454 24 -550 12
-506 -62 -1225 -357 -2187 -898 -112 -62 -224 -126 -250 -142 -27 -15 -104
-61 -173 -101 -517 -303 -1491 -934 -2085 -1351 l-220 -154 -7669 -5 -7670 -5
289 -275 c581 -554 700 -721 784 -1105 93 -426 117 -987 119 -2860 1 -1131 6
-1988 17 -2740 3 -192 7 -593 10 -890 3 -297 8 -601 10 -675 2 -74 7 -326 10
-560 3 -234 7 -477 10 -540 21 -524 25 -1810 6 -2146 -32 -595 -114 -944 -262
-1117 -81 -95 -296 -217 -589 -334 -69 -28 -509 -178 -977 -334 -469 -156
-853 -286 -853 -289 0 -7 11148 -5 11155 2 4 3 -62 120 -146 260 -358 594
-584 1135 -734 1760 -99 415 -151 761 -195 1293 -23 284 -40 423 -75 621 -94
539 -289 1083 -552 1540 -162 281 -382 596 -551 789 l-70 79 111 61 c805 436
1310 985 1546 1682 46 135 90 320 118 493 27 173 25 586 -5 808 -51 378 -144
686 -304 1005 -100 201 -453 768 -762 1224 -116 172 -237 354 -269 405 -85
136 -219 414 -269 558 -38 111 -43 135 -43 215 0 104 17 152 94 270 71 109
176 211 435 424 356 292 380 311 394 311 10 0 967 -377 1247 -492 190 -77 432
-230 535 -337 197 -206 257 -359 295 -751 39 -397 2 -863 -129 -1605 -62 -352
-271 -1462 -397 -2110 -44 -225 -86 -444 -94 -485 -41 -213 -94 -560 -125
-830 -12 -96 -23 -191 -25 -210 -7 -52 -33 -333 -40 -420 -3 -41 -10 -124 -15
-185 -5 -60 -14 -200 -19 -310 -6 -110 -13 -243 -16 -295 -10 -176 -14 -1474
-4 -1625 31 -517 93 -980 190 -1420 131 -592 354 -1260 614 -1835 130 -288
426 -838 474 -880 16 -14 338 -15 2962 -13 1619 1 2948 2 2952 2 4 1 14 16 21
34 360 881 517 1273 746 1867 261 674 384 1249 430 2010 11 190 11 837 0 1150
-12 305 -20 501 -25 550 -3 25 -9 119 -15 210 -12 188 -27 390 -36 469 -4 46
-3 53 10 48 9 -4 106 -63 216 -132 1094 -690 1966 -1567 2585 -2600 59 -99
111 -184 116 -189 5 -5 25 2 49 18 l41 27 35 -22 c84 -52 217 4 481 201 18 13
35 21 37 19 3 -3 6 -85 6 -182 2 -174 1 -178 -22 -197 -20 -17 -20 -19 -5 -20
10 0 22 -10 26 -22 5 -13 10 -205 10 -427 l2 -403 -33 20 c-32 20 -189 84
-194 79 -1 -1 20 -60 47 -132 27 -71 77 -211 110 -310 l61 -180 -6 -150 c-14
-357 -64 -649 -136 -800 -81 -168 -205 -272 -757 -637 -244 -161 -443 -295
-443 -298 0 -3 360 -4 800 -3 l800 3 -22 -48 c-56 -121 -335 -663 -413 -802
-234 -417 -484 -810 -735 -1156 -55 -75 -100 -140 -100 -143 0 -3 55 -73 121
-156 66 -82 155 -196 197 -252 71 -96 79 -103 112 -104 19 0 42 -2 50 -3 8 -2
69 -6 135 -10 282 -16 660 -57 935 -101 1188 -192 1932 -574 2218 -1142 61
-120 122 -348 122 -455 l0 -37 53 15 c130 38 1154 383 1447 487 1043 371 2178
809 3295 1272 182 75 337 139 347 142 20 6 66 105 90 198 102 387 -88 1109
-567 2157 l-63 138 3026 2 3026 3 -489 316 c-632 409 -951 610 -1259 795 -186
111 -268 167 -324 219 -173 161 -304 398 -388 704 -154 562 -215 1390 -235
3186 -9 879 -2 5556 10 5895 34 1004 99 1478 238 1743 72 136 270 288 919 707
l458 295 -2786 3 -2787 2 54 85 c61 98 107 203 137 313 26 100 29 313 5 417
-98 432 -401 703 -905 809 -65 14 -155 28 -198 32 l-80 7 15 -116 14 -115 110
-17 c500 -76 782 -324 829 -725 23 -207 -51 -416 -222 -617 l-61 -73 -503 0
-503 0 -6 228 c-10 359 -44 783 -94 1195 l-26 218 -135 147 c-896 974 -1845
1786 -2827 2419 -700 451 -1451 830 -2197 1109 -355 133 -808 272 -1168 360
-128 31 -214 58 -280 89 -144 66 -377 127 -610 160 -166 23 -347 42 -465 50
-49 3 -99 8 -110 10 -11 2 -94 7 -185 10 -91 4 -176 9 -190 12 -30 6 -1344 15
-1350 10z m3875 -4478 c429 -46 785 -260 1012 -607 143 -218 258 -552 306
-894 l6 -38 -175 0 c-171 0 -174 0 -174 21 0 49 -53 280 -91 391 -135 405
-367 647 -719 749 -238 70 -598 67 -955 -7 -631 -130 -1304 -407 -2441 -1004
l-285 -150 -352 2 -352 3 90 49 c1672 910 2462 1258 3230 1425 331 71 619 91
900 60z m7080 -2195 c127 -105 282 -232 345 -283 160 -130 206 -177 245 -247
106 -186 174 -560 200 -1084 3 -63 7 -153 10 -200 6 -115 14 -908 21 -2232 3
-603 7 -1112 9 -1130 2 -18 6 -510 9 -1093 9 -1541 17 -2195 42 -3290 17 -739
15 -1696 -6 -1970 -21 -297 -64 -539 -120 -688 -43 -114 -176 -264 -349 -396
l-81 -62 -56 113 c-289 578 -763 1444 -902 1648 -119 174 -475 689 -692 1000
-79 113 -192 276 -252 363 -60 86 -111 157 -113 157 -3 0 -37 -13 -77 -29
-173 -68 -346 -101 -558 -106 -167 -4 -263 4 -435 36 -267 49 -548 147 -860
299 -140 67 -161 81 -161 101 -1 13 -4 230 -8 482 l-7 457 53 -31 c63 -37 377
-196 463 -234 368 -163 633 -234 900 -242 135 -4 174 -2 250 15 179 40 281 95
400 216 108 109 179 245 233 445 23 86 25 115 26 281 0 155 -3 202 -22 287
-82 380 -293 764 -652 1193 -168 200 -469 513 -509 528 -3 1 -15 -12 -25 -30
-11 -18 -37 -59 -58 -92 -21 -32 -37 -62 -36 -67 2 -4 68 -74 148 -156 282
-289 455 -501 613 -751 303 -478 387 -885 256 -1246 -157 -436 -572 -512
-1277 -234 -225 88 -739 352 -764 391 -4 6 -7 313 -8 683 l-1 672 139 178
c484 622 877 1244 1224 1937 l129 257 244 0 244 0 -41 -90 c-23 -50 -38 -93
-35 -97 32 -32 704 -28 912 6 209 33 370 78 513 143 52 23 78 28 138 28 l74 0
0 48 c0 45 2 49 54 90 198 159 329 397 370 675 49 327 -23 625 -210 867 -23
30 -81 93 -128 140 l-86 85 0 1239 c0 1179 1 1238 18 1224 9 -8 121 -100 247
-204z m-21335 97 c0 -5 -18 -45 -40 -89 -98 -198 -128 -428 -80 -636 17 -78
78 -259 121 -362 104 -249 234 -477 468 -818 322 -469 704 -1081 811 -1301
110 -225 181 -455 221 -718 26 -169 37 -551 20 -694 -81 -657 -434 -1193
-1061 -1608 -255 -169 -454 -271 -870 -446 -135 -56 -247 -104 -249 -106 -3
-2 112 -121 255 -266 250 -253 333 -344 475 -527 367 -469 642 -1033 783
-1600 71 -288 105 -525 141 -975 72 -900 282 -1755 602 -2450 35 -77 67 -146
70 -152 4 -10 -235 -13 -1177 -13 l-1182 0 7 28 c77 304 85 612 29 1157 -92
906 -392 1996 -791 2875 -159 351 -299 584 -437 728 -177 185 -333 236 -549
181 -311 -79 -561 -277 -700 -554 -161 -324 -226 -946 -214 -2070 10 -868 46
-1414 118 -1770 38 -188 113 -348 234 -498 30 -37 55 -69 55 -72 0 -3 -628 -5
-1395 -5 -767 0 -1395 4 -1395 8 0 5 12 19 26 33 14 13 50 60 79 104 202 305
288 692 326 1455 13 266 8 1233 -10 2065 -14 617 -30 1679 -36 2455 -3 349 -8
671 -10 715 -2 44 -7 769 -10 1610 -7 2179 -13 2485 -50 2987 -19 246 -38 393
-75 581 -54 266 -123 447 -243 639 -37 59 -67 109 -67 112 0 3 1305 6 2900 6
1785 0 2900 -4 2900 -9z m9750 2 c0 -3 -17 -29 -38 -57 -90 -120 -171 -268
-222 -405 -148 -401 -144 -1116 11 -2011 32 -185 341 -1741 504 -2535 166
-812 235 -1270 299 -1975 69 -754 108 -1757 87 -2243 -28 -650 -114 -1162
-280 -1662 -48 -147 -333 -881 -558 -1440 -91 -225 -167 -416 -170 -422 -4
-10 -537 -13 -2619 -13 l-2614 0 -21 33 c-47 76 -272 537 -343 704 -232 547
-421 1151 -531 1694 -137 681 -181 1347 -156 2354 23 919 83 1625 196 2320 36
219 44 263 199 1060 204 1053 379 2010 420 2300 45 322 57 474 63 788 13 724
-76 1089 -347 1427 -33 41 -60 78 -60 83 0 4 1391 7 3090 7 1700 0 3090 -3
3090 -7z m10765 -1848 l0 -1850 -285 -3 c-157 -2 -465 0 -685 3 l-400 7 47 97
c184 377 222 835 112 1330 -81 363 -232 597 -457 710 -137 69 -152 71 -769 71
-301 0 -660 5 -799 11 -138 6 -253 8 -255 6 -9 -9 -34 -618 -43 -1034 -10
-515 -11 -4729 0 -5613 14 -1215 40 -1908 90 -2400 74 -739 209 -1212 447
-1571 150 -226 302 -367 562 -520 85 -50 177 -106 205 -123 l50 -31 -909 -3
c-499 -1 -1312 -1 -1806 0 l-897 3 48 84 c119 209 190 548 219 1051 22 373 19
1730 -5 2140 -18 313 -11 5836 10 7418 l8 592 -830 -2 -829 -3 -75 -37 c-135
-67 -294 -255 -517 -613 -193 -310 -241 -444 -249 -695 -5 -122 -2 -164 16
-258 34 -177 106 -363 204 -524 26 -42 47 -79 47 -82 0 -3 -308 -6 -685 -6
l-685 0 0 1843 c0 1014 3 1847 7 1850 3 4 2054 6 4557 5 l4551 -3 0 -1850z
m4645 1850 c0 -3 -18 -29 -39 -58 -235 -312 -334 -834 -383 -2007 -18 -435
-18 -6138 0 -6800 38 -1412 87 -1944 227 -2495 73 -288 174 -527 310 -730 172
-257 294 -365 660 -581 l150 -89 -1799 -3 c-990 -1 -1801 0 -1804 2 -2 3 17
38 41 79 130 214 200 505 239 1002 17 211 17 1665 1 2405 -21 931 -27 1469
-38 3355 -3 512 -8 962 -10 1000 -2 39 -7 642 -10 1340 -6 1567 -12 1793 -50
2220 -62 678 -207 1062 -486 1291 -38 31 -69 60 -69 65 0 5 647 9 1530 9 842
0 1530 -2 1530 -5z m-14310 -1955 l0 -1599 -57 -39 c-113 -76 -446 -252 -457
-241 -5 5 -17 61 -156 769 -121 618 -150 778 -180 990 -70 506 -80 1024 -24
1300 14 67 66 213 84 233 13 15 693 177 783 186 4 1 7 -719 7 -1599z m3590
-202 c0 -73 -4 -128 -8 -121 -5 8 -46 -23 -126 -98 -154 -143 -396 -357 -616
-544 -96 -82 -209 -180 -250 -218 -41 -39 -111 -99 -154 -134 l-79 -64 -30 53
c-39 68 -96 209 -99 245 -3 33 2 39 422 400 283 244 398 346 579 516 l105 97
128 0 128 0 0 -132z m3181 105 c-6 -10 -26 -36 -45 -58 -32 -36 -35 -38 -32
-15 3 14 5 40 5 58 1 31 3 32 41 32 36 0 40 -2 31 -17z m3508 -711 c56 -83 87
-149 118 -249 24 -80 27 -102 26 -248 0 -140 -3 -172 -26 -257 -27 -102 -97
-249 -147 -308 l-29 -35 -1 583 c0 388 3 581 10 577 6 -3 27 -32 49 -63z
m-10279 -1342 l0 -150 93 0 92 -1 -255 -64 c-140 -35 -273 -67 -295 -70 l-40
-7 -32 163 c-18 90 -32 164 -30 165 3 3 440 112 455 113 9 1 12 -35 12 -149z
m3568 -107 l-3 -177 -25 -7 c-778 -220 -1503 -374 -2475 -523 -515 -79 -1312
-182 -1323 -171 -3 3 -20 76 -38 162 -22 104 -29 160 -22 164 5 4 40 9 77 13
787 78 2096 291 2834 462 144 33 154 34 360 34 l211 0 -42 43 -42 43 113 29
c61 16 168 46 237 66 69 21 128 38 133 38 4 1 6 -79 5 -176z m-16677 -4175
c228 -289 547 -1045 764 -1813 165 -581 257 -1069 300 -1580 36 -437 20 -713
-52 -875 -39 -89 -69 -112 -242 -186 -86 -37 -160 -67 -166 -67 -22 1 -386
178 -493 240 -276 160 -447 326 -510 493 -76 205 -129 922 -136 1845 -4 568
11 939 55 1282 56 450 145 609 388 698 20 8 39 14 43 14 4 1 26 -23 49 -51z"/>
<path d="M55615 48689 c-185 -20 -338 -91 -466 -218 -159 -159 -236 -336 -274
-628 -21 -163 -31 -732 -35 -1993 -2 -547 -4 -1246 -5 -1553 -2 -410 1 -560 9
-563 14 -5 389 147 543 221 561 268 1162 806 1465 1310 229 382 327 733 328
1172 0 317 -47 557 -171 873 -192 492 -592 1048 -897 1248 -98 64 -224 116
-308 127 -96 12 -110 12 -189 4z m161 -578 c77 -42 136 -95 236 -211 197 -230
437 -642 521 -897 21 -62 49 -167 64 -235 23 -109 26 -146 26 -318 1 -144 -4
-221 -17 -293 -47 -262 -129 -458 -288 -693 -201 -298 -615 -690 -917 -869
-12 -7 -13 166 -7 1218 6 1146 8 1335 21 1768 11 361 72 515 218 549 58 14 92
10 143 -19z"/>
<path d="M64815 48320 c-242 -48 -463 -242 -628 -550 -316 -591 -555 -1948
-618 -3508 -13 -334 -7 -1397 10 -1662 76 -1193 234 -2174 438 -2725 165 -443
375 -706 653 -818 148 -59 340 -63 492 -10 636 221 958 1319 1068 3648 35 750
34 1335 -5 2030 -61 1086 -203 1994 -412 2640 -126 388 -228 590 -377 744
-109 112 -215 177 -338 206 -67 16 -216 18 -283 5z m175 -555 c163 -84 383
-726 509 -1480 57 -342 130 -911 131 -1016 l0 -25 -192 -23 c-171 -19 -916
-95 -1165 -118 l-93 -9 0 33 c0 108 76 703 135 1052 96 569 185 926 302 1201
84 196 187 341 273 383 44 21 63 21 100 2z m651 -2637 c8 -21 23 -325 16 -329
-5 -3 -79 -9 -165 -13 -156 -7 -263 -12 -417 -21 -44 -3 -170 -8 -280 -11
-110 -4 -207 -8 -215 -10 -8 -1 -46 -3 -85 -4 -65 -1 -54 -4 130 -36 393 -67
1031 -197 1049 -214 18 -18 28 -443 22 -970 -3 -300 -8 -556 -10 -570 -2 -14
-7 -97 -11 -185 -18 -476 -43 -822 -90 -1280 -72 -696 -212 -1318 -366 -1628
-163 -328 -326 -378 -496 -152 -154 205 -281 585 -387 1165 -60 323 -135 887
-161 1205 -8 105 -17 213 -20 240 -5 56 -21 355 -35 630 -11 229 -4 1227 10
1490 5 110 17 289 25 397 8 109 15 206 15 216 0 18 12 20 168 26 351 14 1089
46 1122 49 47 5 180 8 181 5z"/>
<path d="M76293 56500 c-453 -46 -953 -299 -1566 -791 -20 -16 -19 -17 29 -44
27 -16 75 -43 107 -61 l57 -34 123 93 c532 405 987 607 1372 608 135 1 226
-14 330 -54 253 -96 445 -290 525 -527 31 -92 39 -291 15 -415 -47 -255 -197
-573 -420 -890 -47 -66 -85 -123 -85 -126 0 -4 37 -39 83 -78 l82 -71 28 33
c16 17 63 84 106 147 224 331 348 589 419 870 24 95 27 123 27 290 0 162 -3
195 -23 269 -103 377 -453 691 -856 766 -98 18 -255 25 -353 15z"/>
<path d="M15860 35614 c-142 -41 -245 -97 -326 -178 -103 -103 -119 -148 -119
-331 1 -126 4 -148 28 -218 110 -316 377 -636 832 -997 224 -177 564 -415 576
-402 12 12 110 194 107 197 -2 1 -52 35 -113 75 -667 443 -1103 894 -1189
1227 -22 83 -20 187 3 239 30 65 107 116 238 157 70 23 112 32 233 52 19 3 36
7 38 9 1 2 -14 18 -35 36 -21 18 -69 62 -107 97 -37 34 -71 63 -75 62 -3 0
-44 -11 -91 -25z"/>
<path d="M71313 34275 c-211 -261 -687 -756 -958 -996 -525 -465 -1026 -821
-1619 -1151 -104 -58 -466 -240 -581 -293 l-79 -36 219 -100 c1082 -494 1850
-963 2233 -1363 117 -123 158 -177 287 -381 151 -238 402 -609 596 -880 91
-126 248 -345 349 -485 527 -735 703 -1078 787 -1540 24 -130 23 -445 -1 -585
-63 -370 -213 -749 -472 -1191 -552 -943 -1204 -1509 -2031 -1763 -372 -114
-758 -163 -1258 -160 -346 2 -530 14 -1085 69 -162 16 -347 32 -410 35 -532
26 -1084 243 -1777 701 -821 541 -1688 1309 -2838 2514 -1160 1216 -2761 3156
-4218 5111 l-176 237 -68 26 c-38 14 -72 26 -76 26 -4 0 37 -55 91 -122 55
-68 146 -184 203 -259 58 -74 109 -134 114 -132 14 4 340 -444 338 -464 -1 -9
65 -116 146 -237 528 -789 944 -1540 1305 -2353 563 -1271 929 -2650 1030
-3883 9 -102 18 -211 20 -242 18 -211 28 -623 22 -908 -3 -179 -8 -336 -10
-350 -2 -14 -7 -83 -11 -155 -20 -413 -107 -1056 -204 -1503 l-18 -82 36 -9
c231 -60 784 -171 1146 -231 105 -17 228 -40 275 -50 682 -151 1390 -259 1990
-305 41 -3 100 -7 130 -10 231 -19 647 -32 950 -29 223 3 551 12 615 19 22 2
83 7 135 10 152 9 489 44 690 71 1151 154 2228 480 3267 989 814 399 1488 830
2228 1426 262 211 815 698 815 718 0 3 16 80 35 171 59 272 141 737 184 1035
185 1280 207 2460 65 3590 -121 967 -358 1887 -708 2750 -34 83 -57 158 -64
207 -61 411 -574 1286 -1439 2451 -69 92 -128 167 -132 167 -4 0 -35 -34 -68
-75z"/>
<path d="M17742 34217 c-5 -6 -71 -133 -145 -282 -74 -148 -179 -349 -232
-445 -54 -96 -168 -314 -255 -485 -724 -1427 -1157 -2864 -1300 -4305 -41
-413 -59 -1134 -40 -1515 83 -1569 472 -3043 1204 -4560 l87 -181 207 -112
c410 -224 973 -497 1397 -679 1454 -624 2914 -970 4360 -1032 196 -9 887 -6
949 3 17 3 83 8 146 11 63 3 188 12 277 20 115 11 176 12 213 5 102 -19 383
-7 573 25 595 101 1444 354 2527 753 138 51 293 112 298 116 1 2 -18 68 -43
147 -142 446 -280 981 -384 1489 -252 1232 -316 2472 -186 3599 8 69 13 126
12 127 -1 1 -68 -84 -148 -189 -754 -989 -1585 -1951 -2143 -2481 -494 -468
-835 -726 -1181 -892 -131 -63 -175 -78 -450 -154 -82 -23 -244 -70 -360 -105
-195 -60 -325 -103 -1175 -390 -500 -168 -752 -238 -1030 -286 -117 -20 -169
-23 -385 -23 -233 0 -258 1 -375 26 -406 87 -748 279 -1158 650 -190 172 -457
463 -623 678 -627 814 -864 1625 -743 2540 65 488 212 962 559 1795 64 154
135 332 156 395 197 570 700 1149 1553 1784 719 536 1543 1027 2728 1626 l467
235 -247 49 c-1094 213 -2126 536 -3142 984 -125 55 -219 99 -475 223 -397
191 -948 502 -1335 754 -69 44 -130 84 -136 88 -7 4 -16 1 -22 -6z"/>
<path d="M13255 33495 c-489 -79 -745 -387 -746 -895 0 -147 18 -253 67 -403
223 -675 1038 -1381 2364 -2047 224 -112 549 -265 579 -272 9 -2 18 20 30 77
10 44 21 95 25 113 8 32 7 33 -46 56 -159 70 -507 240 -673 328 -1270 674
-1971 1331 -2101 1968 -20 98 -14 324 10 415 55 205 191 342 401 403 322 95
830 30 1498 -192 257 -86 658 -244 897 -353 30 -14 91 -41 135 -61 44 -19 199
-93 344 -163 145 -71 265 -128 266 -127 7 9 78 177 82 193 4 17 -17 30 -149
94 -1036 501 -1726 751 -2358 852 -168 27 -498 34 -625 14z"/>
<path d="M73330 33089 c-178 -19 -534 -85 -528 -99 2 -3 28 -50 58 -104 53
-95 55 -97 85 -91 428 89 808 98 1060 26 189 -55 336 -172 413 -331 53 -109
72 -181 79 -305 7 -122 -6 -191 -53 -285 -66 -130 -202 -240 -401 -321 -104
-43 -308 -99 -437 -120 -63 -10 -77 -15 -73 -28 3 -9 20 -58 39 -109 l33 -94
45 6 c25 3 95 17 155 31 485 110 787 327 892 640 25 73 27 93 27 240 1 144 -2
170 -27 260 -109 394 -381 615 -839 680 -113 16 -388 18 -528 4z"/>
<path d="M23660 32017 c-367 -167 -1225 -600 -1655 -835 -1612 -879 -2648
-1671 -3118 -2382 -78 -118 -184 -330 -217 -435 -12 -38 -76 -200 -142 -358
-376 -907 -509 -1341 -569 -1857 -18 -153 -15 -499 4 -646 99 -730 457 -1376
1136 -2054 394 -393 721 -599 1091 -687 130 -31 412 -43 567 -24 318 39 563
108 1420 400 639 218 860 288 1246 395 258 72 363 113 513 201 773 452 1899
1658 3356 3595 l238 316 40 179 c151 673 420 1438 706 2008 19 37 33 67 31 67
-2 0 -42 -44 -88 -97 -2137 -2480 -3544 -3983 -4314 -4608 -733 -596 -1328
-877 -1860 -878 -363 -2 -661 119 -934 379 -204 194 -368 436 -524 772 -183
396 -267 771 -267 1192 0 541 141 1055 472 1715 127 252 253 479 483 865 100
168 199 338 220 378 99 190 319 472 552 707 479 483 1124 961 2055 1521 l187
112 -62 7 c-34 4 -167 20 -296 36 -266 33 -238 31 -271 16z"/>
<path d="M24630 31762 c-726 -419 -1249 -762 -1705 -1117 -568 -442 -956 -855
-1152 -1225 -21 -41 -116 -203 -209 -360 -607 -1017 -835 -1565 -894 -2153
-18 -173 -8 -489 20 -647 82 -465 322 -970 600 -1264 295 -311 633 -405 1070
-299 447 108 1001 454 1628 1015 310 278 1031 1013 1593 1623 927 1007 2234
2501 3533 4040 89 105 7 27 -430 -411 -789 -793 -1246 -1222 -1854 -1743 -798
-684 -1492 -1181 -2095 -1498 -101 -53 -218 -126 -317 -198 -341 -245 -629
-392 -859 -436 -99 -19 -270 -14 -362 10 -103 27 -238 98 -350 184 -98 75
-441 414 -506 500 -232 307 -178 747 160 1320 202 342 429 645 1029 1374 118
144 251 307 295 364 148 190 385 421 655 641 112 91 419 321 510 381 l55 37
-45 0 c-25 0 -61 2 -80 5 -31 4 -66 -13 -290 -143z"/>
<path d="M67475 31559 c-200 -75 -480 -164 -740 -234 -205 -56 -585 -145 -619
-145 -35 0 -7 -15 234 -130 587 -280 1394 -692 1815 -928 641 -360 1113 -698
1465 -1051 290 -292 464 -552 560 -838 158 -475 54 -936 -317 -1403 -97 -122
-318 -340 -463 -456 -424 -338 -841 -521 -1390 -607 -118 -18 -178 -21 -470
-21 -258 -1 -369 3 -485 17 -363 43 -738 117 -1320 260 -187 47 -396 97 -465
112 -617 134 -1361 565 -2274 1317 -695 573 -1421 1273 -2340 2258 -342 366
-863 953 -1260 1420 -321 377 -322 378 119 -195 1086 -1411 2208 -2754 3164
-3785 301 -325 486 -517 856 -885 1275 -1271 2343 -2066 3155 -2350 216 -75
392 -111 590 -121 69 -3 258 -19 420 -35 526 -51 660 -60 992 -66 346 -6 536
3 768 37 970 142 1680 658 2277 1655 489 815 595 1392 364 1973 -123 308 -292
577 -813 1295 -314 433 -584 828 -838 1228 -289 455 -1141 995 -2562 1625
-142 63 -259 114 -260 113 -2 0 -75 -28 -163 -60z"/>
<path d="M65404 31059 c-76 -13 -503 -57 -626 -65 l-107 -7 102 -70 c517 -355
1126 -856 1416 -1163 47 -51 133 -127 191 -169 332 -246 582 -496 702 -700
131 -226 154 -469 67 -726 -60 -181 -311 -646 -401 -744 -265 -289 -730 -328
-1449 -121 -328 95 -699 234 -1339 501 -168 70 -357 147 -420 172 -171 65
-202 79 -360 158 -454 227 -993 618 -1614 1170 -245 218 -252 219 -46 9 1631
-1666 2901 -2616 3775 -2823 72 -17 297 -71 500 -121 905 -219 1285 -280 1754
-280 764 0 1355 243 1886 775 490 490 607 952 364 1436 -224 449 -777 939
-1602 1421 -528 309 -1353 731 -2361 1207 -331 157 -331 157 -432 140z"/>
<path d="M74030 29700 c0 -18 39 -213 43 -215 1 -1 72 -9 157 -19 478 -53 802
-191 932 -396 126 -199 75 -555 -120 -830 -150 -212 -404 -386 -714 -490 l-68
-23 0 -118 c0 -66 4 -119 9 -119 27 0 263 90 368 140 383 183 633 442 756 786
29 80 64 242 70 324 7 86 -10 224 -39 308 -118 354 -519 577 -1159 646 -243
26 -235 26 -235 6z"/>
<path d="M14015 29194 c-27 -2 -120 -8 -205 -14 -818 -58 -1415 -265 -1736
-602 -192 -203 -283 -433 -285 -723 -2 -265 56 -472 189 -675 53 -79 215 -239
303 -298 216 -144 516 -252 839 -302 41 -6 86 -13 98 -15 136 -22 311 -30 637
-30 491 0 736 22 1411 126 39 6 75 14 81 17 8 6 -2 222 -10 228 -1 1 -63 -9
-137 -22 -153 -26 -550 -78 -715 -93 -391 -36 -891 -39 -1160 -7 -782 94
-1199 373 -1290 861 -25 132 -16 351 18 457 28 89 83 194 135 258 234 291 703
483 1373 564 289 35 418 41 869 41 407 -1 520 -5 875 -32 l80 -6 14 113 c7 61
11 113 9 115 -1 1 -106 10 -233 20 -213 16 -1019 29 -1160 19z"/>
<path d="M74206 25983 c-4 -49 -9 -100 -12 -115 -5 -24 -1 -30 23 -39 147 -55
408 -170 588 -259 529 -260 886 -530 1084 -820 73 -107 103 -166 143 -283 53
-158 52 -381 -4 -552 -99 -304 -317 -480 -688 -556 -126 -26 -440 -36 -616
-20 -265 24 -525 72 -834 153 -107 28 -207 53 -222 55 -23 4 -41 -8 -118 -78
-49 -46 -90 -86 -90 -90 0 -7 42 -20 290 -89 278 -76 588 -139 850 -172 163
-20 620 -17 740 5 420 78 693 262 847 572 100 201 141 489 99 706 -118 613
-750 1150 -1888 1603 -92 36 -171 66 -176 66 -5 0 -13 -39 -16 -87z"/>
<path d="M15064 25716 c-514 -257 -795 -417 -1154 -656 -733 -490 -1162 -975
-1266 -1435 -25 -110 -25 -303 -1 -409 25 -106 79 -231 139 -324 54 -83 186
-221 258 -269 101 -68 260 -133 395 -162 560 -120 1421 102 2510 646 138 68
253 127 257 131 5 6 -66 199 -78 211 -2 3 -88 -39 -192 -91 -735 -376 -1364
-602 -1887 -679 -138 -21 -441 -18 -545 4 -290 63 -463 191 -574 428 -54 113
-70 187 -69 314 0 78 7 133 21 187 157 581 955 1240 2320 1915 l294 145 -7 47
c-4 25 -9 53 -10 61 -2 8 -6 39 -10 68 -4 30 -12 52 -19 52 -7 0 -178 -83
-382 -184z"/>
<path d="M72295 22450 c-44 -32 -80 -63 -80 -69 0 -6 38 -56 85 -113 438 -528
701 -919 865 -1286 263 -591 226 -1011 -112 -1281 -355 -283 -865 -186 -1543
295 -366 260 -827 684 -1253 1155 l-78 86 -109 -45 c-74 -31 -106 -50 -102
-58 33 -58 633 -678 822 -850 391 -355 807 -651 1115 -794 253 -118 467 -173
680 -174 153 -1 246 15 365 62 229 90 434 283 532 501 262 576 -69 1419 -985
2514 -55 64 -104 117 -110 116 -7 0 -48 -27 -92 -59z"/>
<path d="M16593 22144 c-469 -665 -808 -1335 -928 -1834 -56 -234 -71 -494
-40 -671 59 -340 265 -600 599 -757 144 -69 300 -102 474 -102 673 0 1436 621
2241 1825 189 283 233 358 216 368 -12 6 -195 77 -201 77 -1 0 -28 -42 -60
-92 -310 -493 -680 -972 -990 -1282 -651 -651 -1207 -823 -1694 -524 -251 154
-370 384 -370 713 0 500 288 1177 867 2037 l112 167 -48 27 c-39 22 -54 39
-78 88 l-30 60 -70 -100z"/>
<path d="M45330 21224 c0 -296 -2 -588 -5 -649 -26 -588 -48 -883 -90 -1212
-38 -296 -97 -626 -141 -793 -9 -30 -22 -134 -30 -230 -72 -882 -265 -1241
-744 -1388 -203 -62 -774 -103 -930 -66 -387 91 -674 521 -888 1329 -80 302
-135 568 -247 1195 -41 234 -87 477 -100 542 -65 311 -87 728 -59 1162 l6 89
-50 -42 c-110 -91 -102 -70 -160 -421 -144 -876 -199 -1523 -181 -2145 13
-428 73 -793 174 -1056 20 -52 78 -218 130 -369 238 -701 357 -1002 537 -1353
425 -828 970 -1282 1786 -1487 406 -102 770 -93 1029 25 549 252 814 1033 790
2330 -16 834 -148 2088 -429 4075 l-71 505 -109 163 c-60 90 -134 202 -164
250 l-54 86 0 -540z"/>
<path d="M28070 21163 c-112 -51 -479 -202 -615 -253 -77 -29 -144 -56 -148
-60 -5 -4 -33 -90 -62 -191 -268 -922 -619 -1735 -987 -2289 -224 -335 -471
-598 -718 -764 -377 -253 -767 -299 -1221 -146 -148 50 -362 160 -469 241
-112 84 -233 200 -297 284 l-45 60 6 -470 c6 -451 10 -685 21 -1140 5 -199 8
-279 20 -630 9 -234 34 -821 40 -910 3 -44 12 -197 20 -340 33 -574 92 -1293
146 -1795 240 -2229 630 -3680 1182 -4410 87 -114 226 -257 322 -328 97 -72
271 -157 386 -187 l95 -25 200 94 c109 51 359 168 554 261 2754 1300 3398
1595 4416 2018 207 87 758 349 2229 1061 121 59 365 177 543 263 177 86 322
160 322 164 0 5 -12 16 -27 26 -52 32 -168 127 -242 198 -280 264 -515 676
-592 1033 -26 126 -36 375 -20 505 42 331 197 666 461 997 101 126 347 374
485 489 214 178 515 392 756 538 l54 33 -45 -7 c-25 -4 -157 -8 -295 -8 -271
1 -404 17 -594 72 -165 47 -187 61 -348 227 -156 159 -261 291 -356 444 -45
72 -96 168 -102 189 0 1 -50 -14 -110 -33 -627 -200 -1050 -328 -1610 -487
-472 -134 -495 -141 -498 -136 -39 51 -462 714 -667 1044 -124 200 -390 654
-540 920 -49 86 -119 213 -155 280 -21 39 -55 102 -76 140 -111 205 -188 356
-363 710 -106 215 -203 413 -216 440 -12 28 -37 82 -55 120 -18 39 -61 133
-95 210 -34 77 -72 160 -83 185 -139 311 -362 872 -497 1255 -24 66 -45 123
-49 127 -3 3 -31 -5 -61 -19z"/>
<path d="M69095 20830 c-11 -5 -52 -18 -91 -30 -39 -12 -76 -25 -83 -29 -10
-6 -3 -31 27 -102 218 -513 366 -965 446 -1369 51 -254 60 -351 60 -605 0
-211 -3 -253 -22 -343 -87 -400 -300 -637 -672 -749 -125 -37 -314 -44 -430
-14 -584 147 -1069 985 -1399 2416 -27 121 -56 251 -62 288 l-13 68 -75 -7
c-42 -3 -95 -9 -117 -13 l-41 -6 47 -220 c208 -963 476 -1671 813 -2145 300
-424 638 -632 1029 -632 332 0 675 155 882 398 201 236 296 546 296 962 0 552
-170 1207 -541 2090 -23 55 -23 55 -54 42z"/>
<path d="M61761 20678 c-119 -349 -291 -736 -426 -958 -198 -326 -415 -522
-602 -546 -72 -9 -129 14 -194 77 -48 47 -50 48 -58 26 -5 -12 -28 -62 -50
-112 l-41 -90 37 -33 c209 -185 552 -105 834 196 157 167 283 358 424 647 130
265 355 845 341 880 -2 6 -42 21 -87 33 -46 12 -93 24 -105 28 -19 5 -25 -7
-73 -148z"/>
<path d="M46084 20680 c85 -549 267 -2037 330 -2700 66 -681 81 -950 81 -1425
0 -429 -7 -551 -46 -855 -124 -965 -503 -1543 -1131 -1724 -463 -134 -1146
-26 -1739 275 -472 239 -870 624 -1179 1139 -228 379 -416 819 -665 1550 -53
157 -121 351 -150 431 -159 430 -216 813 -216 1451 0 515 50 1103 146 1718 13
85 22 156 20 158 -2 2 -46 -32 -98 -75 -51 -44 -155 -128 -230 -187 -129 -102
-137 -110 -151 -159 -8 -29 -58 -225 -111 -437 -312 -1255 -491 -2276 -561
-3190 -24 -313 -24 -861 0 -1100 48 -488 152 -858 310 -1104 20 -31 77 -139
127 -239 380 -758 615 -1153 898 -1507 527 -659 1181 -1011 2053 -1105 312
-34 757 -30 1098 10 761 89 1190 342 1528 902 137 228 226 428 517 1158 287
720 408 1006 578 1367 87 183 128 333 163 598 22 169 30 705 15 978 -40 703
-155 1531 -363 2602 l-61 315 -46 40 c-350 304 -737 698 -1084 1105 l-39 45 6
-35z"/>
<path d="M20170 20633 c0 -4 -7 -48 -15 -98 -42 -256 -57 -613 -35 -836 58
-574 318 -989 755 -1207 139 -70 260 -102 388 -102 377 -1 695 296 948 885 90
211 244 700 277 883 l9 50 -101 8 c-56 5 -107 9 -115 9 -9 0 -27 -55 -58 -175
-87 -346 -224 -715 -345 -935 -208 -376 -453 -541 -720 -484 -191 41 -425 200
-556 376 -242 326 -316 805 -225 1446 9 64 14 119 11 122 -2 2 -44 16 -94 30
-49 14 -97 28 -106 31 -10 3 -18 2 -18 -3z"/>
<path d="M63044 20536 c-10 -28 -106 -562 -133 -741 -92 -610 -128 -1056 -118
-1480 11 -445 63 -743 176 -1005 82 -190 230 -361 377 -437 132 -69 214 -88
384 -87 84 0 170 5 205 13 371 82 675 304 957 696 335 466 633 1246 832 2175
37 174 116 593 116 616 0 11 -24 14 -115 14 -111 0 -115 -1 -120 -22 -2 -13
-14 -77 -26 -143 -182 -1043 -476 -1907 -830 -2440 -236 -355 -484 -560 -785
-651 -78 -23 -107 -27 -229 -27 -120 -1 -148 2 -199 21 -272 101 -425 388
-493 924 -24 189 -24 738 1 1013 35 403 104 883 192 1338 19 98 34 182 34 186
0 5 -22 11 -50 15 -27 4 -53 7 -57 8 -5 0 -32 7 -61 13 -40 10 -55 10 -58 1z"/>
<path d="M25755 20409 c-16 -5 -45 -11 -65 -14 -19 -3 -52 -10 -72 -16 l-38
-10 0 -240 c0 -707 -106 -1179 -326 -1452 -135 -166 -326 -247 -550 -233 -307
20 -494 174 -563 466 -68 284 -47 663 65 1140 13 58 27 113 30 124 6 18 1 18
-112 11 -66 -4 -122 -12 -125 -17 -11 -17 -67 -291 -89 -428 -72 -467 -46
-828 79 -1085 127 -258 337 -401 640 -436 234 -26 459 26 624 145 322 231 501
683 547 1376 13 197 10 672 -5 676 -5 1 -23 -2 -40 -7z"/>
<path d="M40480 19893 c-171 -122 -642 -437 -820 -548 -486 -304 -1008 -603
-1543 -884 -145 -76 -656 -332 -792 -396 -354 -167 -421 -199 -595 -277 -276
-124 -781 -343 -1006 -435 -7 -2 15 -66 61 -171 39 -92 93 -225 120 -297 971
-2637 2521 -4643 4618 -5979 1013 -645 2203 -1152 3464 -1476 l163 -42 177 67
c1089 411 2116 932 3007 1528 1178 786 2181 1753 2945 2835 40 57 119 149 175
205 136 136 243 289 400 569 197 355 430 862 668 1458 133 333 203 516 283
736 l33 91 -161 63 c-154 60 -496 200 -568 233 -19 9 -92 41 -164 72 -1161
504 -2277 1156 -3189 1861 -81 63 -98 73 -93 53 13 -53 109 -590 146 -819 92
-570 167 -1171 186 -1505 4 -60 9 -121 12 -135 9 -49 12 -827 2 -935 -34 -407
-86 -611 -234 -930 -187 -403 -316 -709 -565 -1346 -293 -746 -447 -1067 -644
-1343 -318 -444 -733 -703 -1322 -825 -448 -93 -1080 -115 -1569 -56 -982 119
-1720 549 -2319 1350 -242 324 -432 646 -781 1330 -76 149 -162 311 -192 361
-205 346 -322 826 -352 1449 -9 172 -6 644 4 750 2 28 7 93 10 145 47 778 225
1835 511 3028 42 173 74 315 72 316 -1 2 -68 -44 -148 -101z"/>
<path d="M61975 19083 c-188 -268 -429 -504 -653 -638 -90 -54 -104 -59 -197
-72 -55 -8 -197 -16 -315 -18 -250 -4 -389 10 -567 56 -65 17 -127 33 -138 36
-15 3 -25 -5 -40 -34 -394 -748 -973 -1620 -1534 -2313 -194 -239 -540 -648
-626 -738 l-21 -23 -340 56 c-1325 218 -2597 498 -3688 811 -142 41 -260 73
-261 72 -1 -2 27 -57 63 -123 87 -162 218 -450 280 -617 231 -624 248 -1129
53 -1523 -96 -193 -217 -334 -413 -483 -244 -185 -473 -290 -738 -338 -104
-19 -328 -26 -434 -13 -157 18 -399 83 -539 144 -12 5 1 -22 36 -76 174 -268
356 -652 416 -875 11 -40 21 -48 343 -265 3133 -2115 5670 -3418 7293 -3748
342 -69 504 -86 820 -86 238 0 286 3 399 24 145 25 257 56 367 99 73 29 75 30
139 123 108 157 216 344 315 544 139 283 219 490 430 1115 212 626 406 1055
693 1534 207 345 517 782 816 1149 75 93 161 201 190 240 334 448 674 1399
966 2701 48 214 160 749 160 764 0 3 -26 -19 -57 -49 -255 -247 -582 -429
-910 -505 -195 -45 -519 -58 -738 -29 -903 120 -1425 690 -1568 1710 -18 129
-21 201 -21 510 -1 370 6 473 53 818 10 70 16 127 15 127 -1 0 -24 -30 -49
-67z"/>
<path d="M33880 16658 c-58 -20 -109 -38 -114 -40 -4 -2 -3 -31 4 -63 42 -205
222 -347 520 -411 116 -25 399 -25 560 -1 163 25 399 79 580 133 85 25 165 48
178 51 12 3 22 10 22 16 0 9 -68 192 -76 205 -1 2 -62 -15 -135 -37 -662 -198
-1102 -210 -1339 -36 -56 41 -81 88 -89 165 l-6 55 -105 -37z"/>
<path d="M52036 16238 c-20 -57 -36 -106 -36 -109 0 -4 62 -51 138 -105 639
-454 972 -880 972 -1242 0 -260 -221 -557 -469 -629 -75 -21 -241 -13 -336 17
-139 44 -304 138 -470 267 -109 85 -340 297 -378 347 -16 20 -32 36 -36 36 -4
0 -33 -48 -63 -106 l-55 -106 126 -121 c405 -388 755 -578 1071 -579 249 0
449 101 628 319 441 538 185 1208 -718 1884 -130 98 -320 229 -330 229 -4 0
-24 -46 -44 -102z"/>
<path d="M35930 15217 c-604 -363 -1079 -717 -1416 -1052 -368 -367 -538 -669
-551 -977 -7 -147 12 -235 74 -360 59 -117 129 -203 248 -304 196 -166 458
-270 755 -299 107 -11 369 -8 475 5 574 69 1202 283 1963 668 l103 53 -45 57
c-25 31 -58 72 -73 91 l-29 33 -101 -50 c-612 -308 -1188 -514 -1671 -599
-201 -35 -516 -43 -677 -18 -139 21 -308 77 -410 135 -158 91 -304 244 -356
378 -20 48 -23 76 -24 177 0 135 15 195 86 337 138 275 466 619 909 951 293
219 513 368 850 572 80 48 146 89 148 90 3 3 -96 205 -101 205 -2 0 -72 -42
-157 -93z"/>
<path d="M50397 13227 l-67 -91 24 -25 c42 -46 205 -268 270 -368 207 -320
307 -575 308 -788 0 -114 -11 -166 -54 -248 -88 -164 -326 -308 -592 -356 -94
-17 -273 -13 -384 8 -236 46 -495 169 -742 351 -44 33 -84 60 -88 60 -5 0 -44
-32 -88 -71 -43 -40 -81 -73 -82 -75 -7 -5 115 -97 238 -179 243 -162 469
-261 710 -312 119 -25 424 -25 528 0 248 60 440 161 582 306 123 127 179 244
200 419 39 317 -132 740 -495 1227 -98 132 -183 235 -193 234 -4 0 -37 -42
-75 -92z"/>
<path d="M38208 12018 c-456 -677 -702 -1205 -785 -1688 -25 -145 -23 -418 5
-537 56 -243 173 -433 365 -588 154 -126 322 -209 509 -251 103 -24 127 -26
263 -21 211 8 334 42 548 155 231 121 448 308 726 627 133 152 387 512 504
715 l26 45 -83 52 c-45 29 -90 55 -98 58 -11 4 -29 -16 -64 -72 -487 -789
-971 -1243 -1427 -1339 -284 -59 -619 54 -839 284 -303 317 -300 811 6 1502
107 239 256 503 461 816 l132 201 -79 81 c-44 45 -81 82 -84 82 -2 0 -41 -55
-86 -122z"/>
<path d="M47811 10769 c-47 -33 -86 -61 -88 -63 -2 -2 20 -68 48 -147 172
-489 260 -819 319 -1204 31 -198 38 -546 16 -708 -57 -404 -233 -666 -549
-818 -132 -63 -228 -83 -372 -76 -135 6 -192 20 -309 78 -125 63 -222 135
-352 264 -274 272 -534 688 -793 1269 -39 88 -72 161 -74 163 -3 3 -196 -84
-205 -92 -5 -5 93 -225 183 -412 82 -168 216 -419 265 -493 231 -351 307 -449
480 -619 205 -200 432 -331 652 -376 112 -23 321 -16 432 14 194 52 362 150
511 296 144 142 225 272 290 468 64 194 85 344 85 614 1 341 -53 684 -175
1126 -77 281 -249 778 -269 776 -6 0 -49 -27 -95 -60z"/>
<path d="M41396 9878 c-30 -146 -41 -898 -17 -1153 49 -527 160 -902 344
-1161 70 -98 209 -233 290 -282 158 -95 316 -139 509 -141 124 -2 212 11 314
44 451 150 812 673 1059 1537 30 103 57 202 60 220 l6 33 -107 28 c-59 15
-109 26 -111 24 -1 -2 -19 -62 -38 -133 -197 -721 -450 -1187 -759 -1396 -144
-99 -264 -132 -446 -125 -135 5 -238 32 -330 84 -336 193 -526 664 -569 1413
-11 178 -6 605 9 794 5 71 9 130 7 132 -5 5 -207 104 -212 104 -2 0 -7 -10 -9
-22z"/>
</g>
</svg>
