<?xml version="1.0" standalone="no"?>
<!DOCTYPE svg PUBLIC "-//W3C//DTD SVG 20010904//EN"
 "http://www.w3.org/TR/2001/REC-SVG-20010904/DTD/svg10.dtd">
<svg version="1.0" xmlns="http://www.w3.org/2000/svg"
 width="4725.000000pt" height="4725.000000pt" viewBox="0 0 4725.000000 4725.000000"
 preserveAspectRatio="xMidYMid meet">

<g transform="translate(0.000000,4725.000000) scale(0.100000,-0.100000)"
fill="#000000" stroke="none">
<path d="M25365 42801 c-634 -274 -1334 -737 -2015 -1333 -91 -79 -172 -153
-180 -165 -8 -11 -128 -144 -266 -294 -207 -227 -401 -440 -784 -865 -27 -30
-39 -53 -44 -89 -4 -26 -10 -54 -13 -62 -3 -8 39 20 93 63 231 181 464 312
682 384 178 58 278 73 442 67 228 -9 423 -79 610 -218 217 -161 350 -339 410
-551 30 -103 38 -303 17 -423 -44 -248 -176 -526 -375 -788 -29 -37 -52 -69
-52 -71 0 -1 30 4 68 13 41 9 119 15 202 15 l135 1 100 -57 c255 -144 400
-283 504 -481 l28 -53 134 56 c74 31 152 64 175 72 l40 16 175 -68 c391 -152
688 -298 983 -483 l79 -49 -7 39 c-45 264 -68 505 -65 707 5 432 105 722 314
914 117 107 283 175 497 202 157 21 355 -16 505 -94 50 -26 83 -38 83 -31 0
21 -128 410 -197 595 -294 799 -680 1507 -1130 2073 -286 360 -588 657 -953
939 l-86 66 -109 -47z"/>
<path d="M18473 41465 c-192 -42 -354 -192 -437 -404 -22 -56 -53 -169 -71
-258 l-7 -33 54 0 c29 0 82 3 118 6 l65 6 19 81 c23 96 80 216 130 274 22 25
64 56 104 75 59 29 76 33 152 33 74 0 93 -4 145 -29 109 -54 218 -183 313
-372 l40 -80 123 -12 c67 -7 123 -11 125 -9 6 6 -37 109 -87 210 -124 248
-246 386 -414 467 -127 61 -237 74 -372 45z"/>
<path d="M20850 41180 c-231 -37 -422 -196 -585 -487 -31 -56 -55 -107 -53
-114 3 -10 175 -68 205 -69 7 0 25 24 39 53 78 154 204 296 308 347 202 100
463 22 564 -167 51 -96 65 -170 66 -338 1 -82 -3 -182 -7 -220 l-8 -70 101
-54 c56 -29 105 -49 110 -45 13 15 31 163 37 309 16 397 -110 665 -372 790
-122 58 -286 84 -405 65z"/>
<path d="M31225 40880 c-332 -50 -567 -325 -690 -809 -43 -172 -95 -512 -78
-511 4 1 57 11 117 23 l110 23 22 145 c73 468 218 762 427 863 111 53 260 55
360 4 175 -89 286 -368 322 -810 l7 -78 115 0 115 0 -6 88 c-38 503 -170 825
-400 978 -114 75 -271 107 -421 84z"/>
<path d="M16110 40534 c-235 -63 -416 -263 -466 -514 -49 -249 57 -620 278
-968 l34 -52 70 103 70 103 -53 99 c-181 341 -227 611 -134 794 33 63 115 145
182 181 166 88 386 24 648 -187 l54 -44 79 78 c43 42 78 81 78 85 0 10 -121
106 -205 163 -220 147 -457 207 -635 159z"/>
<path d="M18123 40329 c-175 -11 -420 -36 -437 -46 -8 -4 -81 -69 -163 -144
-953 -876 -1612 -1879 -1933 -2944 l-48 -160 -40 -6 c-159 -22 -249 -305 -293
-919 -7 -91 -13 -343 -13 -560 l-1 -395 170 -7 c818 -33 1682 -256 2416 -623
l108 -55 -88 138 c-458 716 -809 1397 -934 1812 -76 250 -83 344 -59 755 7
115 12 322 12 460 1 473 22 744 75 945 31 115 116 292 183 380 125 165 326
317 587 445 621 303 1185 353 1690 150 302 -122 572 -310 981 -681 61 -55 148
-131 193 -169 224 -185 400 -467 559 -895 194 -525 357 -1332 460 -2274 l17
-160 98 127 c169 217 283 344 521 583 414 414 760 690 1292 1035 102 66 253
158 337 206 83 47 156 90 161 94 20 18 -318 412 -609 708 -372 378 -709 653
-965 785 -47 25 -117 71 -156 102 -113 93 -340 261 -479 354 -861 575 -1801
892 -2850 960 -180 11 -594 11 -792 -1z"/>
<path d="M33594 40045 c-178 -39 -381 -170 -578 -375 -48 -50 -84 -95 -80 -99
53 -46 164 -131 171 -131 4 0 49 41 98 92 251 254 474 347 649 269 257 -113
285 -428 83 -931 -34 -85 -62 -159 -62 -163 0 -10 147 -185 155 -186 8 -1 92
186 144 321 84 216 126 413 126 582 -1 206 -58 354 -182 472 -146 138 -331
191 -524 149z"/>
<path d="M23070 40010 c-227 -48 -460 -165 -733 -368 -49 -35 -85 -68 -80 -72
40 -35 174 -130 183 -130 7 0 29 13 49 29 143 113 420 262 561 301 240 67 476
10 553 -134 33 -62 31 -184 -7 -296 -50 -150 -174 -369 -315 -554 -28 -37 -51
-72 -49 -76 2 -4 36 -43 77 -86 l74 -79 32 38 c47 55 179 243 236 340 300 499
274 860 -76 1033 -149 74 -326 93 -505 54z"/>
<path d="M28920 39749 c-25 -5 -77 -25 -117 -44 -192 -95 -282 -318 -253 -628
12 -124 30 -237 39 -237 3 0 51 27 106 58 60 36 99 64 98 73 -13 84 -20 230
-13 290 24 207 109 277 319 267 146 -8 254 -60 371 -178 l60 -61 107 37 c60
21 110 39 112 40 15 12 -153 192 -235 250 -78 55 -193 109 -276 129 -69 16
-244 18 -318 4z"/>
<path d="M18560 39333 c-284 -32 -664 -167 -935 -333 -233 -142 -369 -327
-419 -570 -34 -166 -39 -267 -51 -985 -3 -176 -8 -334 -11 -350 -3 -17 -6
-109 -7 -205 -2 -161 0 -183 25 -275 139 -519 570 -1314 1303 -2405 90 -133
93 -137 216 -227 120 -90 398 -308 449 -354 14 -12 36 -32 49 -43 l24 -21 -15
25 c-39 62 -330 583 -491 875 -33 61 -81 148 -107 195 -227 411 -535 1013
-682 1334 -117 256 -214 520 -267 726 -53 209 -65 300 -65 490 1 156 4 186 27
272 103 388 402 603 915 658 378 41 747 -50 1072 -266 240 -158 428 -341 753
-729 83 -99 175 -207 205 -240 269 -300 486 -863 668 -1730 40 -189 44 -201
39 -125 -4 47 -8 99 -10 115 -2 17 -7 62 -10 100 -3 39 -8 88 -10 110 -7 67
-36 318 -40 355 -3 19 -7 58 -11 85 -130 1087 -373 1978 -652 2394 -58 86
-162 204 -215 242 -21 15 -79 65 -129 111 -50 45 -98 90 -108 98 -9 8 -45 40
-80 70 -34 30 -68 60 -74 65 -30 28 -219 177 -281 221 -239 171 -494 280 -730
312 -70 10 -279 13 -345 5z"/>
<path d="M31915 39283 c-1130 -30 -2158 -297 -3015 -781 l-125 -71 -25 25
c-58 55 -182 36 -332 -49 -99 -57 -271 -187 -433 -327 -134 -116 -738 -715
-859 -852 -64 -73 -68 -81 -73 -135 l-5 -58 99 -87 c121 -106 307 -296 432
-442 442 -515 784 -1160 986 -1855 l33 -115 10 55 c92 467 121 608 163 799
220 988 449 1626 701 1952 32 42 118 129 191 195 73 65 303 287 512 493 434
429 537 516 724 610 331 167 681 161 1168 -20 831 -309 1254 -819 1382 -1665
31 -207 68 -630 78 -897 9 -247 -42 -480 -183 -828 -69 -170 -252 -528 -374
-730 -278 -465 -710 -1068 -1154 -1614 -53 -65 -95 -121 -92 -123 2 -2 95 7
207 21 661 82 1229 83 1932 6 305 -34 711 -106 1010 -181 87 -21 165 -39 172
-39 55 0 115 600 115 1155 0 555 -54 1008 -155 1310 -13 38 -31 129 -40 200
-129 1053 -520 2018 -1149 2834 -302 393 -678 770 -1114 1119 l-116 92 -115 1
c-64 0 -192 2 -286 3 -93 1 -215 1 -270 -1z"/>
<path d="M27281 38864 c-144 -39 -291 -154 -349 -274 -36 -73 -62 -179 -62
-256 0 -142 55 -336 154 -539 93 -190 77 -182 172 -82 l81 85 -48 98 c-97 200
-143 389 -121 499 16 81 38 119 94 170 88 79 207 105 295 66 84 -39 176 -148
252 -299 32 -63 32 -63 54 -45 130 104 157 128 157 138 0 20 -97 174 -155 245
-138 172 -335 245 -524 194z"/>
<path d="M31316 38418 c-131 -12 -247 -58 -381 -148 -121 -82 -205 -159 -555
-510 -157 -157 -337 -332 -400 -390 -253 -231 -286 -272 -395 -495 -140 -284
-260 -642 -389 -1160 -67 -268 -152 -642 -171 -756 -3 -19 -8 -41 -10 -49 -16
-51 -135 -716 -191 -1060 l-44 -275 14 -185 c22 -276 26 -341 27 -505 l1 -150
67 265 c429 1677 727 2700 951 3270 104 263 300 623 410 754 228 271 409 385
657 415 224 28 485 -61 738 -251 461 -346 673 -810 678 -1483 2 -177 -8 -478
-17 -535 -4 -23 -8 -79 -22 -300 -28 -453 -279 -1039 -760 -1772 -57 -87 -102
-158 -101 -158 2 0 36 42 77 93 41 50 77 94 80 97 14 12 298 381 436 565 638
854 1015 1529 1140 2040 21 87 29 147 38 283 1 19 -1 61 -5 95 -7 62 -15 158
-24 297 -12 177 -37 425 -51 505 -59 344 -131 542 -273 754 -102 154 -301 336
-481 441 -284 165 -637 290 -865 306 -38 3 -77 6 -85 7 -8 2 -51 -1 -94 -5z"/>
<path d="M35058 38301 c-48 -11 -118 -29 -155 -41 -110 -36 -376 -168 -481
-238 -10 -7 1 -32 49 -106 59 -92 63 -96 83 -83 11 8 62 37 111 65 285 162
550 226 721 174 82 -25 146 -68 203 -137 189 -228 125 -480 -200 -790 -89 -85
-231 -198 -326 -260 -24 -15 -43 -30 -43 -34 0 -21 77 -211 86 -211 6 0 61 36
123 80 506 360 740 707 692 1026 -36 244 -222 467 -449 542 -106 34 -288 40
-414 13z"/>
<path d="M15294 38260 c-95 -12 -216 -52 -294 -97 -91 -53 -219 -182 -259
-260 -42 -85 -58 -183 -44 -269 24 -140 134 -311 286 -448 123 -111 109 -113
146 25 l33 119 -85 90 c-108 113 -152 196 -152 285 1 38 7 72 19 95 46 85 195
191 306 218 25 6 74 12 109 13 l64 2 48 103 c27 57 49 108 49 114 0 5 -12 10
-27 10 -16 0 -50 2 -78 4 -27 3 -82 0 -121 -4z"/>
<path d="M23995 38104 c-71 -18 -174 -54 -180 -64 -2 -4 27 -47 65 -97 l69
-90 68 18 c83 22 162 24 208 5 27 -12 35 -22 41 -52 7 -39 -1 -192 -12 -232
-6 -21 5 -17 121 40 l127 63 -4 95 c-9 216 -117 319 -343 326 -65 2 -121 -2
-160 -12z"/>
<path d="M18505 37799 c-195 -25 -380 -102 -461 -192 -101 -112 -141 -249
-131 -448 18 -362 188 -828 587 -1604 257 -498 817 -1522 827 -1511 3 2 -2 17
-10 33 -24 46 -171 447 -221 600 -106 325 -169 576 -207 811 -11 70 -33 174
-49 232 -62 230 -78 324 -78 447 0 201 67 343 212 450 64 48 265 152 379 197
191 76 390 15 599 -183 178 -169 334 -384 615 -851 71 -118 146 -240 166 -271
19 -30 49 -82 66 -115 17 -32 31 -54 31 -48 0 19 -61 257 -106 410 -128 441
-280 758 -453 949 -25 28 -62 70 -81 95 -19 24 -47 58 -61 75 -14 16 -37 43
-50 59 -13 16 -29 34 -34 40 -6 6 -51 58 -101 116 -113 130 -316 331 -409 405
-190 152 -379 245 -585 291 -87 19 -338 26 -445 13z"/>
<path d="M12370 37174 c-960 -36 -1766 -166 -2510 -406 -167 -54 -443 -158
-451 -170 -8 -13 -35 -214 -57 -418 -26 -251 -23 -952 6 -1268 33 -362 116
-969 135 -988 3 -3 36 10 73 29 151 76 336 117 526 118 245 1 430 -60 590
-194 186 -156 311 -345 408 -614 37 -105 91 -310 105 -401 l7 -43 43 71 c53
84 121 173 167 217 54 52 272 128 440 154 77 12 307 8 339 -5 13 -6 23 29 62
226 84 414 159 725 261 1077 24 84 48 157 53 161 8 9 39 19 368 113 391 113
640 172 915 218 74 12 138 25 142 28 3 3 -30 49 -73 101 -321 383 -427 741
-312 1052 56 151 218 353 358 447 115 77 269 134 395 147 30 3 61 8 68 10 8 2
-19 39 -70 96 -46 51 -96 110 -113 131 l-30 38 -205 19 c-113 10 -288 24 -390
30 -102 6 -210 13 -240 15 -69 6 -895 13 -1010 9z"/>
<path d="M30904 37094 c-223 -45 -427 -270 -635 -699 -131 -271 -283 -694
-434 -1210 -15 -49 -33 -110 -40 -135 -145 -493 -390 -1389 -382 -1397 2 -2
26 50 52 114 190 464 435 934 644 1233 48 69 109 166 135 215 152 284 296 442
466 509 59 24 202 32 282 17 89 -18 332 -98 402 -133 119 -60 205 -177 248
-337 30 -111 33 -357 7 -551 -19 -146 -75 -429 -129 -660 -17 -69 -44 -188
-60 -265 -17 -77 -39 -168 -49 -202 -11 -35 -18 -63 -16 -63 1 0 24 37 51 83
317 542 477 949 498 1267 4 47 13 182 21 301 32 443 26 708 -20 935 -39 194
-90 320 -191 474 -109 166 -302 341 -474 429 -152 78 -258 100 -376 75z"/>
<path d="M14381 36424 c-221 -59 -372 -287 -359 -539 16 -287 258 -509 756
-691 144 -53 138 -56 134 79 -2 61 -7 115 -10 118 -4 3 -36 16 -72 29 -192 68
-397 187 -484 280 -70 75 -99 145 -94 228 8 128 82 242 177 270 91 28 228 6
400 -63 49 -19 91 -35 93 -35 7 0 31 230 25 236 -11 11 -206 76 -270 90 -86
18 -226 17 -296 -2z"/>
<path d="M37515 36115 c-236 -24 -431 -44 -433 -45 -1 0 20 -29 47 -65 98
-127 175 -294 213 -457 32 -139 32 -389 0 -508 -88 -327 -352 -584 -752 -733
-112 -42 -273 -89 -384 -113 l-78 -17 46 -23 c147 -75 265 -178 306 -269 128
-279 153 -580 70 -819 -101 -292 -404 -531 -798 -631 -52 -13 -99 -28 -104
-33 -4 -4 31 -21 80 -36 94 -31 154 -54 479 -182 117 -46 217 -84 223 -84 6 0
41 24 78 53 293 234 572 307 843 220 129 -42 302 -148 399 -246 112 -112 203
-274 238 -422 l18 -77 58 71 c138 169 319 316 480 392 148 69 219 84 401 84
173 0 255 -15 378 -70 176 -77 328 -226 436 -425 l40 -75 62 130 c417 878 659
1690 744 2500 35 331 30 835 -11 1150 -13 99 -63 397 -67 401 -8 8 -381 121
-487 148 -366 93 -803 163 -1225 196 -77 6 -162 13 -190 15 -27 3 -192 7 -365
9 -314 5 -316 4 -745 -39z"/>
<path d="M35260 36097 c0 -4 12 -56 26 -117 l26 -110 147 0 c394 0 697 -53
919 -161 84 -40 118 -64 176 -122 79 -77 108 -125 130 -212 27 -102 1 -171
-100 -263 -162 -149 -577 -287 -1076 -357 l-48 -6 0 -115 c0 -106 1 -114 19
-114 48 0 395 64 538 100 560 138 858 344 903 623 31 194 -81 427 -273 571
-181 136 -406 215 -737 261 -115 16 -650 34 -650 22z"/>
<path d="M35456 33944 c-7 -51 -8 -184 -2 -184 2 0 41 -7 87 -15 106 -20 269
-70 332 -101 57 -29 123 -87 142 -124 12 -24 12 -32 -6 -68 -46 -92 -234 -233
-502 -376 -123 -65 -147 -81 -151 -104 -17 -85 -38 -234 -34 -238 13 -12 386
182 538 281 347 225 456 410 360 611 -83 171 -338 299 -716 359 l-41 6 -7 -47z"/>
<path d="M9941 33615 c-29 -8 -90 -34 -135 -57 -154 -80 -308 -266 -386 -469
-93 -241 -150 -586 -150 -905 0 -105 2 -115 18 -110 9 3 60 21 112 40 l95 34
2 53 c27 645 172 1034 432 1162 56 28 76 32 142 32 67 0 81 -4 125 -30 150
-93 277 -378 364 -820 12 -60 23 -111 25 -113 4 -4 209 30 217 37 4 3 -6 71
-22 150 -111 550 -282 867 -527 978 -73 33 -226 42 -312 18z"/>
<path d="M11792 32911 c-111 -41 -213 -147 -279 -289 -19 -41 -32 -76 -30 -79
3 -2 59 -1 125 3 l121 7 46 59 c25 32 60 66 79 74 30 15 36 15 69 -1 20 -9 59
-41 87 -71 53 -56 94 -71 104 -36 2 9 10 65 16 124 l12 107 -29 26 c-15 14
-56 39 -89 56 -81 40 -159 47 -232 20z"/>
<path d="M7575 32665 c-193 -42 -373 -183 -464 -362 -87 -174 -87 -406 0 -668
54 -159 192 -428 316 -612 l29 -42 84 71 c47 38 87 72 89 74 2 1 -26 50 -62
107 -266 423 -351 748 -252 965 52 114 213 232 339 247 230 29 510 -184 793
-602 42 -62 80 -113 85 -113 4 0 50 23 103 51 60 32 93 55 88 62 -24 43 -138
208 -201 292 -108 143 -296 328 -411 403 -187 122 -365 165 -536 127z"/>
<path d="M11985 32319 c-731 -70 -1387 -216 -1743 -389 -75 -36 -169 -72 -251
-94 -824 -229 -1582 -630 -2217 -1170 -241 -205 -550 -526 -770 -801 -206
-256 -439 -605 -608 -907 l-37 -67 11 -98 c41 -355 139 -916 186 -1065 5 -17
-39 -18 -831 -18 l-836 0 -53 39 c-72 54 -123 114 -160 191 -29 61 -31 72 -31
180 0 102 3 121 24 165 75 152 277 254 601 302 86 13 186 17 392 17 l278 1 -1
25 c0 14 -6 66 -12 115 l-12 90 -275 -1 c-204 0 -306 -5 -395 -18 -323 -46
-535 -135 -676 -283 -113 -119 -159 -238 -160 -407 0 -141 41 -287 106 -372
14 -18 25 -35 25 -38 0 -3 -879 -6 -1954 -6 -1554 0 -1955 -3 -1958 -12 -2 -7
-3 -620 -3 -1363 l1 -1350 957 -3 957 -2 1 -1308 c0 -719 2 -1315 4 -1325 2
-10 6 -235 10 -500 10 -665 -9 -974 -66 -1107 -35 -81 -116 -148 -479 -390
l-345 -230 1154 0 1154 0 94 -87 c219 -203 504 -449 658 -570 52 -40 369 -246
1080 -700 314 -201 603 -386 644 -413 l74 -48 48 96 c105 210 242 350 432 442
167 80 245 95 482 94 237 0 327 -16 636 -111 11 -3 24 8 39 34 20 33 21 42 10
68 -39 98 -70 202 -70 237 0 58 37 229 71 333 33 99 102 236 148 294 l30 38
-35 34 c-40 39 -218 237 -221 247 -2 4 3571 7 7940 7 4368 0 8190 2 8494 4
l551 4 -161 117 c-89 64 -215 154 -281 200 -144 101 -150 108 -191 195 -54
115 -62 147 -120 526 -75 487 -189 1192 -220 1359 -14 74 -29 167 -35 205 -5
39 -16 113 -25 165 -9 52 -24 151 -35 220 -11 69 -76 472 -146 895 -69 424
-133 813 -141 865 -81 518 -131 843 -177 1160 -31 206 -63 418 -71 470 -8 52
-22 156 -30 230 -8 75 -17 147 -20 160 -10 51 -18 208 -12 233 6 21 60 52 359
202 194 98 387 197 428 220 41 23 129 69 195 101 l120 59 -7204 3 c-5749 2
-7206 5 -7213 15 -25 40 25 425 73 552 69 185 263 299 589 347 155 22 561 15
925 -17 28 -2 79 -7 115 -10 36 -3 128 -10 205 -15 77 -5 156 -12 175 -16 62
-12 27 4 -156 75 -366 140 -591 205 -894 256 -62 11 -323 14 -385 5 -33 -4
-112 -11 -175 -15 -63 -3 -128 -8 -145 -10 -16 -2 -66 -7 -110 -10 -684 -52
-1110 -244 -1365 -617 -112 -163 -210 -398 -210 -505 l0 -33 -170 0 -170 0 0
48 c1 109 55 291 137 457 228 461 608 758 1144 895 229 59 743 118 1188 137
359 16 881 -118 1518 -388 79 -34 146 -59 149 -57 15 16 -27 46 -194 141 -699
396 -1321 690 -1807 855 -275 94 -445 137 -677 172 -101 15 -394 6 -453 -14
-42 -14 -194 -49 -370 -87 -105 -22 -301 -73 -405 -105 -417 -130 -662 -286
-874 -559 -174 -222 -289 -513 -363 -910 -25 -136 -26 -443 -1 -527 l16 -58
-173 0 c-143 0 -174 3 -179 15 -17 46 -28 205 -23 345 13 342 116 737 274
1050 96 191 181 308 333 460 158 158 271 238 485 345 246 122 494 200 958 301
89 19 185 42 212 50 397 119 1040 -3 1852 -352 322 -138 798 -373 1116 -551
54 -30 100 -53 102 -51 2 2 -12 59 -31 128 -139 509 -237 1124 -262 1660 -18
373 -13 820 14 1143 4 43 3 76 -2 76 -5 -1 -49 -6 -99 -10z m7970 -4968 c272
-102 297 -112 397 -161 93 -46 127 -75 169 -139 24 -38 29 -55 29 -110 0 -81
-25 -416 -45 -611 -8 -80 -22 -212 -30 -295 -8 -82 -19 -181 -24 -220 -5 -38
-12 -108 -16 -155 -4 -47 -11 -116 -16 -155 -5 -38 -13 -117 -19 -175 -5 -58
-14 -139 -20 -180 -5 -41 -14 -122 -20 -180 -6 -58 -17 -154 -25 -215 -7 -60
-17 -139 -20 -175 -3 -36 -10 -87 -15 -115 -5 -27 -14 -102 -20 -165 -5 -63
-19 -182 -30 -265 -18 -143 -41 -326 -62 -500 -5 -44 -16 -134 -24 -200 -9
-66 -20 -156 -25 -200 -6 -44 -17 -132 -25 -195 -8 -63 -19 -151 -25 -195 -5
-44 -17 -132 -25 -195 -9 -63 -24 -183 -34 -267 -10 -83 -23 -184 -29 -225 -7
-40 -34 -242 -61 -448 -28 -206 -61 -442 -75 -525 -13 -82 -31 -202 -41 -265
-18 -124 -20 -129 -101 -268 l-55 -94 -17 29 c-75 123 -168 328 -226 496 -96
273 -176 697 -200 1057 -15 215 -78 513 -152 720 -88 245 -213 477 -379 697
-46 62 -84 115 -84 117 0 2 30 21 67 41 111 61 286 180 380 258 279 233 452
495 531 804 26 104 27 118 26 358 0 279 -15 394 -79 610 -40 135 -52 164 -158
395 -104 226 -208 474 -237 567 -28 86 -39 280 -20 339 25 77 119 175 265 274
54 37 347 210 355 210 3 0 100 -35 215 -79z m-5184 -68 c158 -163 218 -263
250 -415 46 -227 58 -612 64 -2208 3 -762 7 -1395 9 -1407 7 -34 21 -1108 21
-1563 -1 -417 -9 -563 -41 -719 -36 -174 -80 -236 -222 -309 -84 -44 -281
-122 -307 -122 -29 0 -144 257 -219 487 -93 286 -162 642 -181 928 -10 160
-15 208 -36 325 -58 325 -128 533 -273 818 -57 110 -195 325 -271 421 l-43 54
127 76 c201 120 286 186 446 346 241 240 357 443 421 735 16 70 19 125 18 305
-1 195 -4 236 -28 360 -43 222 -80 339 -170 538 l-26 57 48 1 c26 1 54 1 62
-1 10 -1 6 7 -10 24 -19 19 -40 28 -77 33 l-52 6 -70 161 c-162 373 -192 468
-192 611 0 50 5 105 10 124 29 96 170 217 439 376 184 108 153 113 303 -42z
m-2493 -26 c-55 -167 -58 -354 -8 -566 10 -42 18 -77 17 -78 -2 -1 -243 63
-377 100 l-85 24 3 64 c8 187 77 350 178 420 25 17 103 50 172 74 70 24 127
44 128 44 0 1 -12 -36 -28 -82z m5108 58 c-88 -231 -83 -467 18 -791 18 -60
48 -154 65 -209 111 -349 171 -715 174 -1053 2 -234 -4 -266 -75 -404 -47 -92
-100 -155 -165 -196 -42 -26 -486 -212 -507 -212 -13 0 5 2178 20 2365 12 161
55 284 125 360 52 56 92 78 224 121 114 38 130 40 121 19z m-8384 -45 c135
-102 475 -238 778 -311 74 -18 137 -33 139 -35 13 -11 60 -339 49 -349 -3 -3
-59 6 -124 20 -500 108 -881 263 -1108 451 l-69 57 34 29 c36 30 239 178 245
178 2 0 27 -18 56 -40z m-3192 -931 l0 -922 -267 7 c-147 4 -269 8 -270 10 -1
1 7 31 18 66 50 161 62 348 33 538 -46 313 -178 508 -379 560 -23 6 -218 13
-460 16 -231 3 -447 8 -481 12 l-61 7 -6 -64 c-23 -229 -29 -860 -24 -2420 6
-1931 14 -2225 73 -2636 43 -307 113 -521 225 -694 56 -85 144 -183 209 -232
l35 -27 -777 0 c-428 0 -778 2 -778 3 0 2 9 30 20 63 32 93 58 258 71 451 9
130 9 356 3 838 -10 757 -10 3395 0 4178 l7 527 -480 0 c-539 0 -534 1 -626
-74 -74 -61 -237 -291 -315 -445 -90 -179 -92 -410 -5 -606 14 -32 25 -59 25
-61 0 -2 -119 -4 -265 -4 l-265 0 0 915 0 915 2370 0 2370 0 0 -921z m2398
844 c-60 -154 -95 -366 -120 -718 -19 -259 -18 -3851 0 -4250 20 -439 41 -644
87 -875 69 -342 211 -605 405 -753 l35 -27 -776 0 -775 0 27 83 c62 184 81
398 82 912 0 215 -5 649 -11 965 -6 316 -16 1266 -22 2110 -6 844 -15 1633
-20 1752 -19 413 -67 649 -165 812 -19 32 -35 60 -35 62 0 2 297 4 659 4 l659
0 -30 -77z m3267 60 c-60 -149 -84 -278 -96 -517 -5 -111 -12 -818 -16 -1573
l-6 -1371 184 75 c101 41 351 142 554 224 204 82 402 168 440 191 91 54 237
200 299 300 57 92 108 215 144 346 26 92 27 108 26 307 -3 436 -72 842 -219
1295 -94 289 -99 309 -99 445 -1 109 1 125 25 175 14 30 41 70 59 88 l34 32
442 0 442 0 -39 -76 c-89 -177 -101 -403 -34 -656 26 -103 118 -334 245 -618
137 -306 150 -340 180 -455 40 -157 53 -293 47 -481 -5 -180 -20 -246 -86
-379 -47 -95 -114 -186 -202 -274 -204 -204 -452 -354 -859 -521 -96 -40 -176
-73 -177 -74 -1 -1 78 -82 175 -181 198 -202 297 -321 402 -481 211 -324 326
-679 359 -1114 26 -324 75 -616 151 -894 39 -140 125 -386 156 -448 8 -15 14
-32 14 -38 0 -7 -165 -10 -526 -10 l-526 0 7 58 c11 83 8 340 -5 467 -56 559
-231 1186 -469 1681 -121 250 -227 385 -348 442 -198 93 -516 -54 -641 -296
-54 -104 -78 -187 -102 -350 -52 -365 -50 -1162 6 -1621 21 -177 40 -245 102
-373 2 -5 -269 -8 -602 -8 l-605 0 34 73 c70 148 107 341 126 668 12 197 10
483 -11 1609 -6 294 -15 1185 -20 1980 -5 795 -14 1522 -20 1615 -22 363 -57
539 -147 743 -4 9 120 12 602 12 574 0 607 -1 600 -17z m5069 -50 c-39 -103
-64 -230 -75 -387 -13 -183 -25 -3016 -12 -3016 5 0 103 39 218 86 116 47 345
140 510 206 165 66 334 137 375 158 271 136 446 389 520 754 21 102 22 115 11
329 -25 472 -94 832 -246 1282 -55 163 -75 261 -75 368 0 106 20 172 70 236
l40 51 449 0 448 0 -37 -72 c-51 -97 -69 -171 -77 -303 -14 -255 31 -403 303
-1018 179 -401 207 -516 208 -832 1 -220 -9 -272 -80 -424 -55 -118 -120 -205
-231 -312 -206 -197 -421 -327 -824 -494 -101 -42 -186 -79 -188 -81 -3 -2 85
-95 195 -207 258 -260 376 -416 496 -654 143 -281 211 -533 243 -901 46 -530
132 -920 289 -1306 20 -50 36 -91 36 -93 0 -2 -238 -3 -530 -3 l-529 0 7 33
c14 64 7 457 -11 597 -68 521 -221 1058 -433 1523 -192 420 -370 572 -604 513
-240 -60 -417 -240 -479 -487 -64 -254 -88 -794 -61 -1369 21 -438 50 -629
117 -762 l23 -48 -604 0 -604 0 35 79 c114 265 143 620 124 1521 -19 902 -30
1796 -36 2940 -6 1045 -14 1443 -36 1635 -22 200 -66 380 -115 477 l-24 48
609 0 610 0 -25 -67z m6428 -72 c-5 -166 10 -316 79 -796 97 -680 237 -1568
539 -3410 168 -1029 211 -1295 290 -1800 54 -346 80 -479 105 -537 7 -17 -25
-18 -584 -18 -325 0 -591 2 -591 3 0 2 9 38 19 80 52 203 48 387 -19 863 -94
662 -358 2296 -374 2311 -4 4 -89 8 -189 7 -153 0 -196 -3 -269 -22 -338 -84
-572 -305 -744 -703 -102 -237 -167 -482 -199 -755 -18 -151 -20 -519 -5 -674
36 -351 130 -701 258 -960 37 -74 69 -138 70 -142 2 -5 -251 -8 -563 -8 -536
0 -567 1 -560 18 45 118 418 3008 604 4687 116 1044 144 1362 145 1635 l1 215
-32 69 c-18 38 -33 70 -33 72 0 2 462 4 1028 4 l1027 0 -3 -139z m-16535 -24
c108 -89 134 -116 151 -155 69 -159 93 -408 96 -966 l1 -310 -85 -23 c-83 -23
-311 -73 -330 -73 -7 0 -9 159 -8 456 l3 457 93 37 c51 21 95 40 98 43 6 6
-62 187 -76 201 -4 4 -33 -1 -64 -13 l-56 -21 -1 218 c-1 119 -2 231 -3 247
-1 17 0 33 2 38 4 8 0 11 179 -136z m2268 -563 c76 -63 166 -130 200 -149 144
-79 372 -150 675 -209 156 -31 368 -66 399 -66 8 0 11 -51 11 -170 0 -170 0
-170 -22 -170 -13 0 -106 13 -208 30 -609 97 -983 226 -1194 411 -46 41 -47
42 -42 93 3 28 8 107 11 176 7 128 12 170 24 170 3 0 69 -52 146 -116z m3363
81 c117 -13 217 -27 222 -30 7 -4 120 -331 120 -347 0 -2 -66 4 -147 13 -82
10 -177 20 -213 24 -36 3 -78 8 -95 10 -16 3 -52 7 -79 10 -27 3 -53 8 -56 10
-4 3 -6 30 -5 62 2 32 3 106 4 166 1 95 3 107 19 107 9 0 113 -11 230 -25z
m-9522 -1017 c-4 -321 -8 -583 -9 -584 -5 -3 -394 411 -437 465 -102 128 -159
266 -146 354 7 49 107 224 173 305 l34 42 196 0 196 0 -7 -582z m2300 535 c45
-107 63 -317 37 -438 -17 -80 -68 -184 -120 -244 -35 -41 -396 -361 -408 -361
-5 0 -4 477 3 888 l3 192 234 0 235 0 16 -37z m7485 -163 l147 0 21 -112 c11
-62 24 -140 27 -172 l7 -59 -309 6 c-170 4 -333 7 -361 7 l-53 0 0 172 0 171
188 -6 c103 -4 253 -7 333 -7z m223 -542 c3 -7 7 -79 10 -159 5 -134 4 -156
-18 -243 -47 -184 -143 -324 -265 -386 -84 -42 -464 -191 -471 -184 -3 3 -5
161 -5 352 l0 346 161 67 c151 63 560 218 577 219 4 0 9 -6 11 -12z m-5864
-377 l0 -379 -62 -42 c-35 -23 -91 -70 -126 -104 -112 -108 -162 -218 -162
-350 1 -92 13 -144 57 -236 47 -98 161 -215 245 -251 l58 -24 1 -105 c0 -58 2
-154 3 -213 2 -59 0 -109 -3 -111 -11 -7 -183 41 -268 73 -158 61 -317 189
-392 314 -82 138 -123 303 -124 500 0 70 -3 127 -5 127 -11 0 -351 -191 -512
-288 -313 -187 -640 -414 -910 -631 -122 -98 -125 -99 -132 -74 -4 14 -7 407
-8 874 l-1 849 956 0 955 0 0 178 0 178 103 17 c75 13 288 63 325 76 1 1 2
-170 2 -378z m10 -903 l1 -232 -31 29 c-17 16 -46 61 -65 99 -58 114 -45 211
40 305 20 22 41 39 45 36 5 -3 9 -110 10 -237z m1935 41 c117 -88 362 -262
524 -374 l113 -78 122 7 c103 6 123 10 138 26 9 11 24 20 33 20 9 0 46 24 83
54 87 70 346 265 348 263 3 -3 13 -684 20 -1302 3 -319 8 -582 9 -585 11 -18
15 -669 6 -820 -28 -438 -64 -591 -158 -669 -51 -42 -167 -101 -287 -146 -114
-42 -94 -46 -246 51 -52 33 -178 112 -280 174 -217 134 -238 149 -296 226
-151 201 -222 635 -240 1459 l-6 310 183 185 c174 176 292 290 438 423 35 32
62 60 60 61 -2 2 -43 26 -90 54 l-85 51 -125 -35 c-101 -29 -232 -68 -371
-110 -17 -5 -18 20 -18 422 0 340 3 424 13 417 6 -6 57 -43 112 -84z m13490
-1186 c86 -523 191 -1193 235 -1498 11 -77 27 -183 35 -235 9 -52 19 -163 22
-246 12 -309 -42 -428 -221 -484 l-75 -23 -85 33 c-108 41 -183 101 -259 205
-81 112 -121 195 -178 369 -55 169 -82 273 -99 391 -7 44 -16 103 -21 130 -16
96 -22 464 -9 590 43 423 205 849 385 1013 54 50 163 112 195 112 13 0 25 -58
75 -357z m-10072 -339 c228 -420 433 -1128 478 -1649 13 -161 7 -337 -15 -411
-16 -50 -18 -52 -88 -84 l-73 -32 -95 47 c-159 79 -232 126 -297 190 -71 71
-85 108 -103 267 -7 57 -15 132 -20 168 -4 36 -8 123 -9 194 -1 71 -4 133 -7
137 -2 4 -4 165 -4 357 0 457 26 748 76 845 20 38 73 89 88 84 5 -2 37 -53 69
-113z m5067 37 c90 -151 234 -508 313 -776 98 -328 145 -569 186 -935 15 -133
7 -325 -15 -389 -19 -53 -21 -55 -88 -84 l-69 -29 -100 46 c-169 78 -305 178
-352 260 -29 51 -41 110 -61 306 -21 207 -31 1009 -15 1205 15 178 38 318 61
372 21 48 62 93 84 93 8 0 33 -31 56 -69z"/>
<path d="M21717 26326 c-188 -67 -287 -284 -341 -746 -16 -129 -57 -656 -76
-955 -11 -178 -50 -1088 -47 -1092 1 -1 106 141 232 315 283 389 359 485 467
588 127 122 146 130 308 139 74 3 136 7 137 9 1 1 -9 78 -23 171 -14 94 -43
332 -64 530 -47 425 -69 553 -117 698 -77 232 -207 358 -370 357 -37 -1 -85
-7 -106 -14z m128 -901 c8 -82 22 -213 31 -290 8 -77 16 -149 19 -160 3 -15
-6 -26 -33 -42 -20 -12 -53 -32 -71 -45 -19 -12 -32 -18 -29 -13 3 6 9 75 12
154 4 80 9 147 11 150 1 4 8 71 14 151 14 180 22 253 26 248 2 -1 11 -70 20
-153z"/>
<path d="M36993 31935 c-68 -15 -191 -75 -219 -106 -17 -19 -16 -24 9 -133 15
-62 27 -121 27 -130 0 -25 8 -20 70 44 71 74 132 103 215 104 134 0 248 -68
281 -166 26 -78 20 -234 -12 -340 -5 -16 5 -18 115 -18 l120 0 6 33 c47 260 8
445 -119 572 -115 115 -333 177 -493 140z"/>
<path d="M38890 31479 c-105 -12 -205 -62 -307 -153 -59 -53 -187 -206 -179
-214 3 -3 58 -15 123 -27 l118 -23 70 68 c166 160 297 161 444 4 63 -67 92
-115 120 -198 l17 -49 109 -38 c60 -22 114 -39 121 -39 15 0 11 39 -16 152
-45 185 -172 360 -331 453 -95 55 -187 76 -289 64z"/>
<path d="M5782 31079 c-77 -12 -181 -50 -244 -91 -67 -43 -159 -145 -196 -220
-185 -369 40 -794 671 -1269 65 -49 121 -89 125 -89 8 0 126 190 121 193 -49
32 -225 170 -303 237 -373 322 -518 610 -412 818 56 111 150 173 292 193 220
31 601 -93 1035 -338 l66 -37 81 84 c44 47 77 88 74 92 -4 3 -74 43 -157 89
-264 146 -506 248 -712 300 -184 47 -306 57 -441 38z"/>
<path d="M37043 30903 l-142 -4 6 -187 c23 -739 -152 -1553 -501 -2320 -31
-68 -56 -125 -56 -127 0 -2 82 49 183 114 767 494 1361 794 1803 907 127 33
96 32 1039 21 598 -7 731 -14 898 -48 394 -80 672 -316 899 -764 126 -250 225
-532 262 -748 l7 -37 -171 2 -172 3 -28 110 c-54 211 -144 429 -263 635 -165
287 -372 438 -657 479 -41 5 -95 13 -120 17 -25 3 -261 8 -525 9 -264 2 -568
6 -675 11 -306 12 -353 7 -565 -62 -423 -139 -1030 -471 -1841 -1011 l-292
-193 -4325 -2 -4325 -3 246 -235 c393 -376 416 -413 462 -735 31 -214 37 -422
39 -1280 2 -434 4 -934 6 -1110 9 -781 17 -1423 20 -1460 3 -55 19 -978 19
-1145 1 -389 -24 -713 -65 -846 -61 -199 -89 -213 -1051 -535 -383 -129 -695
-235 -693 -237 4 -4 6546 -4 6550 0 2 2 -49 89 -112 193 -334 551 -459 965
-528 1745 -46 524 -224 991 -535 1405 -44 58 -80 107 -80 109 0 1 39 27 88 56
336 205 582 472 708 771 176 417 158 930 -49 1370 -24 52 -83 156 -130 232
-48 76 -87 140 -87 142 0 7 -151 236 -240 365 -157 224 -270 456 -270 552 0
48 30 103 91 169 29 30 277 239 328 276 13 10 42 1 161 -48 80 -33 226 -92
325 -130 201 -79 287 -121 360 -177 71 -54 141 -145 164 -214 65 -193 47 -603
-48 -1108 -50 -266 -100 -535 -119 -640 -11 -63 -46 -243 -77 -400 -79 -401
-128 -724 -150 -985 -3 -38 -10 -115 -16 -170 -24 -239 -36 -1017 -19 -1270
42 -635 193 -1210 473 -1800 66 -139 198 -384 233 -430 15 -20 26 -20 1645
-19 896 1 1632 3 1635 6 2 3 13 27 23 54 31 81 270 674 298 738 24 56 55 139
159 422 165 453 218 982 174 1739 -16 266 -40 587 -46 614 l-5 23 48 -27 c159
-93 365 -237 543 -380 141 -112 443 -404 560 -540 155 -180 336 -438 450 -640
41 -71 76 -132 78 -135 2 -3 26 8 54 23 28 16 52 27 54 25 8 -9 11 -709 4
-869 -9 -198 -23 -304 -51 -396 -33 -106 -77 -144 -477 -411 l-356 -237 602
-3 c331 -1 602 -4 602 -6 0 -11 -253 -489 -313 -591 -72 -122 -197 -316 -282
-437 l-47 -67 67 -88 c38 -49 74 -93 81 -99 7 -6 39 -12 71 -13 88 -3 322 -29
468 -52 832 -131 1286 -447 1312 -917 5 -72 9 -92 21 -92 36 0 833 276 1272
440 402 150 1474 578 1484 592 1 1 14 30 28 63 106 241 37 573 -259 1252 -4
10 338 13 1676 15 l1681 3 -158 101 c-634 409 -798 514 -954 608 -204 123
-253 170 -318 300 -97 197 -143 498 -172 1116 -18 392 -18 3930 0 4180 24 333
56 522 105 620 40 80 85 113 819 588 l112 72 -1568 0 c-1490 0 -1568 1 -1561
18 76 184 71 337 -16 511 -75 150 -230 263 -432 313 -48 11 -90 19 -93 16 -3
-3 0 -44 5 -89 20 -153 17 -145 64 -159 187 -56 296 -188 297 -358 0 -55 -32
-144 -73 -204 l-32 -48 -321 0 -321 0 -7 155 c-6 159 -28 409 -46 536 -10 69
-13 75 -74 143 -101 112 -479 484 -606 596 -294 260 -626 511 -932 703 -498
313 -1061 564 -1580 703 l-108 29 0 37 c0 108 -181 198 -485 242 -271 40 -764
59 -1242 49z m2114 -2364 c105 -14 244 -60 323 -106 86 -50 225 -190 278 -278
65 -110 127 -282 146 -403 l6 -42 -171 2 -172 3 -19 70 c-56 206 -174 344
-341 397 -72 24 -262 32 -367 17 -307 -44 -649 -169 -1139 -416 l-143 -73
-362 0 -361 0 115 63 c331 182 738 387 985 497 493 219 915 312 1222 269z
m-7803 -1326 c-48 -160 -13 -346 112 -596 61 -123 96 -179 240 -392 174 -258
350 -544 405 -660 88 -184 126 -389 116 -624 -12 -292 -118 -517 -342 -729
-160 -152 -352 -264 -697 -408 -101 -42 -185 -78 -187 -81 -3 -2 74 -81 170
-176 271 -268 398 -437 533 -709 123 -246 199 -518 226 -803 27 -293 43 -430
66 -565 46 -270 126 -559 219 -791 25 -61 45 -113 45 -115 0 -2 -235 -4 -522
-4 l-523 0 0 258 c-1 272 -11 377 -60 649 -124 679 -430 1456 -655 1667 -99
92 -215 124 -339 91 -198 -51 -352 -177 -432 -351 -89 -195 -126 -572 -115
-1179 11 -622 41 -907 115 -1070 l30 -65 -605 0 -604 0 24 48 c36 71 82 225
100 332 42 257 53 620 37 1270 -12 548 -28 1761 -41 3265 -5 578 -14 1104 -20
1170 -22 245 -68 452 -126 568 l-24 47 1434 0 1434 0 -14 -47z m5216 43 c0 -2
-16 -37 -35 -77 -49 -105 -72 -204 -84 -372 -16 -212 3 -491 54 -791 9 -50 92
-471 185 -936 93 -465 178 -908 189 -985 98 -676 136 -1560 86 -1990 -44 -376
-91 -526 -426 -1362 l-73 -183 -1358 0 -1359 0 -75 153 c-163 334 -305 751
-373 1100 -72 370 -85 555 -78 1147 8 716 40 1033 172 1715 254 1313 284 1499
292 1820 9 379 -17 529 -135 758 -2 4 676 7 1507 7 831 0 1511 -2 1511 -4z
m5850 -916 l0 -920 -93 0 c-52 0 -175 3 -274 7 l-181 6 14 34 c51 121 75 344
55 509 -34 281 -122 470 -263 564 -101 67 -113 69 -583 74 -231 3 -448 8 -482
12 l-61 7 -6 -44 c-19 -142 -26 -745 -26 -2114 0 -1860 12 -2443 56 -2835 59
-519 189 -833 426 -1031 l59 -49 -775 0 c-427 0 -776 4 -776 8 0 5 9 35 20 68
67 192 85 502 74 1239 -11 651 -11 3971 0 4428 l7 318 -498 -3 -498 -3 -53
-30 c-73 -40 -146 -122 -253 -283 -161 -243 -194 -338 -186 -532 4 -114 22
-191 71 -302 l16 -38 -265 0 -265 0 0 915 0 915 2370 0 2370 0 0 -920z m2406
867 c-74 -166 -116 -438 -135 -882 -28 -621 -21 -3542 9 -4200 40 -848 155
-1239 444 -1500 l71 -65 -771 0 -772 0 28 88 c35 109 57 238 70 412 12 165 12
855 0 1352 -5 201 -14 1101 -20 2000 -11 1674 -18 2056 -45 2283 -26 221 -75
393 -145 506 -16 27 -30 51 -30 54 0 3 297 5 659 5 l660 0 -23 -53z m-1834
-68 c194 -155 208 -174 241 -309 45 -187 54 -348 56 -980 1 -289 4 -550 5
-580 2 -30 7 -381 10 -780 12 -1397 18 -2025 22 -2044 2 -10 6 -262 10 -560 9
-707 -9 -995 -68 -1136 -15 -35 -103 -140 -118 -140 -4 0 -51 84 -105 188
-262 505 -306 578 -618 1027 -88 127 -185 266 -215 310 -31 44 -58 83 -62 88
-3 4 -45 -11 -93 -33 -277 -130 -639 -109 -1009 59 -60 27 -68 33 -68 58 0 15
-3 133 -7 261 -3 127 -4 232 -1 232 3 0 57 -25 119 -55 436 -209 755 -219 945
-29 58 58 111 152 140 250 27 88 25 292 -4 398 -27 97 -76 211 -133 312 -63
110 -212 304 -326 423 l-99 105 -58 -89 c-32 -49 -60 -94 -62 -100 -3 -6 32
-51 77 -100 183 -203 318 -415 371 -585 32 -103 32 -260 0 -340 -27 -70 -72
-124 -125 -153 -36 -19 -57 -22 -147 -22 -158 1 -280 39 -546 172 l-151 75 -6
211 c-4 116 -7 336 -7 489 l0 278 67 93 c152 210 319 480 457 740 l58 107 244
0 c134 0 244 -2 244 -5 0 -3 -9 -24 -20 -45 l-20 -40 156 0 c186 0 336 20 455
61 71 24 103 29 178 29 l91 0 0 56 c0 53 3 59 48 109 108 118 156 255 156 445
0 109 -3 135 -27 205 -28 84 -77 167 -139 233 l-37 40 -7 394 c-6 340 1 768
12 768 2 0 54 -41 116 -91z m-5762 -888 l0 -949 -30 -12 c-42 -17 -47 -31 -8
-19 18 5 34 9 35 9 1 0 4 -66 5 -147 l3 -148 95 -5 95 -5 -123 -29 c-67 -16
-124 -27 -126 -25 -3 4 -88 431 -171 856 -107 557 -132 806 -105 1063 13 116
45 192 118 271 47 51 57 57 119 72 37 8 74 15 81 16 9 1 12 -195 12 -948z
m1928 -179 c1 -56 -1 -109 -5 -116 -10 -18 -146 -140 -268 -241 -33 -27 -78
-66 -100 -86 -22 -21 -56 -51 -75 -68 l-35 -31 -19 23 c-35 42 -87 164 -93
220 -10 96 1 113 176 265 l157 137 129 0 130 0 3 -103z m-8 -952 c0 -60 -2
-110 -4 -110 -2 0 -40 40 -85 89 l-81 89 73 20 c39 11 78 21 85 21 9 1 12 -27
12 -109z m0 -189 l0 -49 -77 -21 c-282 -75 -722 -166 -1088 -224 -265 -43
-723 -103 -729 -97 -6 8 -70 320 -65 324 2 2 126 21 274 40 149 20 322 45 385
55 102 17 181 19 708 20 l592 1 0 -49z m-8891 -2209 c110 -172 278 -608 375
-973 104 -392 163 -852 136 -1056 -16 -120 -23 -132 -103 -171 l-68 -32 -113
53 c-176 84 -294 171 -341 251 -28 49 -48 163 -67 381 -17 210 -17 1094 0
1235 17 138 40 247 59 284 18 34 61 76 78 76 7 0 27 -22 44 -48z"/>
<path d="M30001 26615 c-185 -52 -317 -202 -366 -415 -26 -113 -34 -444 -34
-1491 l-1 -927 188 78 c222 91 289 124 402 198 290 188 549 461 675 712 192
382 185 803 -21 1212 -143 284 -341 516 -512 600 -79 40 -90 43 -181 45 -63 2
-115 -2 -150 -12z m221 -502 c98 -102 238 -335 286 -473 44 -128 56 -207 49
-332 -14 -238 -88 -393 -292 -608 -90 -95 -205 -200 -220 -200 -10 0 3 1296
15 1473 9 146 22 195 54 207 24 9 52 -8 108 -67z"/>
<path d="M34993 26425 c-89 -25 -155 -65 -229 -139 -154 -155 -247 -383 -334
-816 -61 -303 -100 -605 -132 -1010 -17 -223 -17 -1090 0 -1305 41 -506 110
-949 192 -1231 90 -307 225 -505 404 -590 125 -59 276 -59 397 2 326 163 486
686 561 1834 17 259 17 1150 0 1370 -48 620 -121 1045 -242 1394 -91 265 -186
393 -345 468 -80 37 -190 46 -272 23z m136 -494 c107 -193 231 -780 266 -1261
4 -47 8 -98 10 -115 23 -183 30 -935 10 -1175 -2 -30 -7 -122 -10 -205 -3 -82
-8 -166 -10 -185 -2 -19 -7 -66 -10 -105 -3 -38 -7 -83 -10 -100 -2 -16 -7
-61 -10 -99 -9 -111 -45 -340 -81 -510 -42 -202 -141 -427 -190 -434 -58 -8
-158 202 -212 443 -101 449 -158 1032 -159 1630 -1 512 29 889 108 1362 68
414 139 655 226 771 14 18 30 31 36 29 7 -2 23 -23 36 -46z"/>
<path d="M41165 30799 c-206 -24 -469 -146 -731 -340 -30 -22 -52 -44 -49 -48
2 -5 50 -34 104 -65 l100 -56 108 71 c124 82 255 147 363 181 61 19 97 23 195
23 110 0 125 -2 179 -28 174 -81 264 -237 236 -409 -20 -126 -76 -264 -165
-402 -19 -30 -35 -59 -35 -63 1 -12 156 -138 171 -138 17 0 140 207 183 310
58 139 79 234 79 355 0 88 -4 118 -26 183 -41 118 -92 192 -191 275 -143 120
-328 174 -521 151z"/>
<path d="M8573 19511 c-77 -56 -113 -134 -113 -246 0 -193 154 -421 445 -659
111 -91 253 -196 265 -196 5 0 32 44 60 97 l53 97 -25 20 c-14 12 -64 49 -111
84 -267 196 -442 405 -455 543 -6 60 9 80 75 105 l45 18 -88 82 c-49 46 -94
83 -100 84 -6 0 -29 -13 -51 -29z"/>
<path d="M38574 18693 c-110 -135 -454 -478 -604 -603 -278 -231 -611 -454
-881 -590 -33 -17 -59 -33 -57 -35 2 -2 80 -42 173 -88 562 -279 914 -533
1067 -770 150 -232 262 -397 428 -628 395 -548 504 -748 551 -1009 18 -100 15
-295 -6 -395 -83 -402 -412 -950 -740 -1235 -285 -247 -557 -372 -950 -437
-167 -27 -607 -24 -895 6 -118 12 -271 26 -340 31 -137 10 -237 32 -375 80
-735 260 -1780 1194 -3079 2750 -121 146 -233 281 -249 300 -22 28 -18 14 24
-75 324 -695 521 -1322 619 -1970 105 -700 86 -1451 -54 -2090 -14 -60 -23
-112 -20 -114 17 -17 615 -120 879 -152 263 -31 677 -38 851 -14 71 10 134 18
139 18 6 0 125 -3 265 -6 821 -16 1554 113 2280 403 652 260 1246 636 1837
1162 l121 109 16 72 c48 208 120 671 145 932 48 485 42 1085 -14 1523 -58 446
-164 882 -312 1280 l-34 93 30 28 c146 137 -38 550 -596 1334 -74 103 -135
187 -136 187 -2 0 -39 -44 -83 -97z"/>
<path d="M9577 18528 c-125 -267 -191 -429 -262 -643 -61 -182 -115 -401 -115
-466 0 -16 -29 -117 -64 -222 -74 -221 -111 -345 -160 -542 -331 -1334 -180
-2676 452 -4004 l49 -103 119 -65 c908 -493 1818 -782 2739 -869 195 -18 695
-25 846 -11 l86 8 15 -39 c12 -32 26 -44 72 -67 132 -65 397 -38 844 85 236
65 768 240 953 315 15 6 14 14 -8 83 -135 424 -233 847 -297 1283 -48 323 -71
688 -63 1022 4 189 2 236 -8 225 -6 -7 -77 -94 -156 -192 -570 -709 -1063
-1196 -1408 -1389 -112 -63 -156 -80 -371 -142 -107 -31 -388 -121 -625 -200
-440 -147 -563 -183 -720 -209 -144 -24 -236 -28 -345 -16 -295 32 -555 175
-840 460 -508 507 -739 1044 -691 1603 27 305 104 580 288 1026 47 113 96 238
110 276 76 209 193 383 398 594 359 369 897 735 1710 1165 l195 103 -157 38
c-854 203 -1704 561 -2381 1001 -62 41 -114 74 -116 74 -2 0 -42 -82 -89 -182z"/>
<path d="M7405 18459 c-157 -12 -282 -66 -369 -159 -63 -69 -99 -142 -120
-244 -80 -387 187 -791 790 -1194 200 -134 747 -424 763 -405 8 8 53 215 49
218 -2 1 -91 47 -198 102 -432 221 -709 411 -921 629 -209 217 -296 417 -259
599 33 162 130 225 348 225 290 0 688 -121 1217 -368 83 -39 156 -72 163 -74
9 -2 30 34 58 97 24 55 44 101 44 102 0 7 -171 88 -351 166 -524 229 -918 328
-1214 306z"/>
<path d="M39660 18243 c-25 -2 -96 -10 -157 -19 l-113 -16 52 -97 c28 -53 55
-101 60 -107 5 -8 25 -8 60 -2 89 14 278 10 355 -7 163 -37 253 -151 253 -319
0 -135 -99 -228 -300 -282 -36 -10 -68 -20 -72 -23 -4 -4 9 -53 29 -109 27
-77 40 -102 53 -102 34 0 155 43 232 81 109 55 198 141 246 237 37 76 37 76
37 201 -1 149 -19 215 -92 324 -113 171 -347 258 -643 240z"/>
<path d="M12600 17357 c-1034 -518 -1667 -941 -2036 -1362 -107 -122 -182
-245 -227 -370 -14 -38 -63 -163 -110 -276 -104 -252 -168 -433 -212 -604
-159 -608 -12 -1107 481 -1624 238 -250 432 -372 649 -409 75 -13 109 -13 205
-4 165 17 302 55 770 212 228 77 509 167 623 200 115 33 227 70 250 81 251
127 664 508 1082 999 50 58 92 107 95 110 9 7 211 257 321 395 52 66 160 205
239 309 l143 188 18 89 c35 169 130 520 167 618 6 17 -19 -8 -62 -59 -16 -19
-49 -58 -75 -86 -25 -28 -59 -66 -76 -85 -52 -59 -180 -204 -185 -209 -3 -3
-39 -43 -79 -90 -41 -47 -80 -90 -85 -95 -6 -6 -51 -55 -101 -110 -49 -55 -94
-105 -100 -111 -5 -6 -50 -55 -100 -109 -323 -355 -763 -801 -946 -960 -390
-338 -704 -520 -1008 -581 -114 -22 -297 -15 -396 16 -136 42 -299 148 -385
251 -171 202 -302 474 -362 752 -32 150 -33 454 -1 613 56 272 164 537 368
894 312 548 376 640 586 847 199 196 409 360 734 576 99 65 182 121 184 123 2
2 -20 4 -50 4 -49 -1 -78 -13 -319 -133z"/>
<path d="M36490 17238 c-58 -22 -184 -63 -282 -92 l-176 -52 251 -127 c446
-224 707 -370 932 -520 561 -374 836 -757 812 -1132 -8 -121 -30 -201 -87
-320 -140 -291 -478 -588 -824 -725 -199 -79 -402 -110 -671 -104 -207 4 -215
5 -420 40 -199 34 -209 36 -550 119 -99 24 -211 50 -249 59 -258 59 -593 239
-964 516 -135 101 -374 293 -428 345 -6 5 -41 37 -79 70 -37 33 -97 87 -133
120 -101 94 -109 84 -12 -15 3 -3 39 -43 80 -90 261 -296 696 -747 955 -990
454 -427 882 -749 1210 -912 193 -96 346 -142 510 -152 55 -3 188 -15 295 -26
255 -27 609 -37 760 -21 550 57 930 317 1255 856 269 446 316 737 169 1054
-62 136 -155 280 -374 581 -155 213 -328 464 -417 604 -143 227 -284 351 -618
548 -212 124 -798 411 -831 407 -5 -1 -56 -19 -114 -41z"/>
<path d="M12954 17069 c-479 -317 -809 -622 -950 -879 -17 -30 -90 -156 -163
-280 -322 -547 -430 -843 -431 -1176 0 -136 20 -256 65 -390 90 -271 242 -482
403 -562 67 -33 84 -37 172 -40 124 -5 223 19 378 93 407 195 839 595 1821
1685 121 134 220 245 351 395 63 72 117 132 120 135 25 23 119 140 100 125
-14 -11 -27 -22 -30 -25 -9 -9 -153 -133 -204 -175 -27 -22 -54 -45 -60 -50
-6 -6 -73 -60 -149 -120 -281 -223 -603 -440 -820 -553 -55 -29 -115 -65 -135
-81 -66 -51 -225 -152 -302 -191 -126 -63 -210 -85 -325 -84 -118 1 -181 21
-289 92 -92 60 -313 281 -354 353 -121 212 -68 466 176 844 99 154 227 320
492 640 64 77 128 157 143 177 15 21 53 65 83 98 31 33 54 60 51 60 -3 0 -67
-41 -143 -91z"/>
<path d="M35380 16970 c-25 -5 -71 -11 -102 -15 l-58 -6 123 -96 c176 -138
279 -227 413 -357 66 -62 166 -151 224 -197 358 -283 458 -511 353 -801 -39
-110 -167 -345 -220 -404 -81 -91 -205 -142 -364 -151 -250 -14 -581 77 -1139
312 -74 32 -202 84 -285 117 -82 33 -167 69 -187 79 -21 11 -38 18 -38 15 0
-6 247 -207 355 -288 321 -241 639 -414 848 -463 40 -9 182 -43 317 -75 468
-113 606 -134 870 -134 164 0 211 4 298 22 253 55 438 154 632 339 410 390
355 712 -197 1156 -80 64 -254 185 -325 226 -18 10 -82 48 -143 83 -203 118
-736 392 -1103 566 -175 82 -190 86 -272 72z"/>
<path d="M40070 16408 c0 -15 40 -221 43 -223 1 -1 34 -7 72 -14 223 -39 358
-129 379 -253 8 -43 -14 -153 -42 -218 -45 -103 -161 -219 -277 -275 -49 -25
-55 -30 -51 -54 2 -14 5 -68 5 -118 1 -61 5 -93 12 -93 20 0 176 77 233 115
157 104 272 253 320 415 64 213 31 376 -103 511 -103 103 -254 168 -476 204
-110 18 -115 18 -115 3z"/>
<path d="M7690 16144 c-19 -2 -84 -9 -145 -14 -305 -29 -583 -117 -751 -236
-184 -130 -277 -307 -277 -529 0 -187 64 -348 187 -469 141 -140 322 -218 609
-263 168 -27 580 -24 822 6 99 12 196 25 215 30 39 8 37 -3 25 145 l-7 88 -41
-6 c-258 -38 -406 -50 -647 -50 -269 0 -374 11 -525 55 -292 86 -435 271 -404
528 29 246 285 401 774 468 105 14 201 18 498 18 l367 0 5 30 c13 83 25 189
21 193 -6 6 -679 12 -726 6z"/>
<path d="M40166 14330 c-4 -56 -10 -108 -13 -116 -4 -10 10 -20 48 -36 99 -40
336 -164 421 -221 293 -195 423 -399 388 -607 -40 -236 -213 -350 -530 -350
-119 0 -296 22 -444 55 l-108 25 -92 -86 c-50 -47 -92 -89 -94 -94 -7 -19 370
-102 555 -121 153 -15 353 -7 458 20 307 79 486 303 489 611 1 110 -13 176
-60 278 -89 196 -291 387 -579 550 -121 68 -391 192 -419 192 -9 0 -15 -30
-20 -100z"/>
<path d="M8225 14236 c-853 -439 -1261 -843 -1259 -1246 2 -264 180 -484 449
-555 193 -51 484 -18 813 92 240 80 648 262 639 286 -55 139 -80 197 -87 197
-4 0 -76 -33 -161 -74 -331 -158 -631 -258 -859 -286 -270 -33 -444 30 -525
190 -87 171 -31 349 180 569 186 195 496 407 910 621 77 39 141 73 143 75 4 4
-28 197 -36 217 -6 15 -34 3 -207 -86z"/>
<path d="M39108 12397 c-48 -34 -86 -67 -84 -73 2 -6 42 -58 89 -117 178 -221
341 -495 395 -667 69 -214 50 -354 -62 -466 -85 -85 -147 -108 -271 -101 -250
14 -545 200 -951 599 -105 104 -195 188 -200 188 -12 0 -197 -80 -207 -89 -9
-9 215 -245 363 -380 349 -318 637 -493 898 -542 96 -18 243 -7 326 25 83 31
179 99 235 163 83 96 140 252 141 384 0 209 -108 486 -306 781 -94 141 -260
358 -272 357 -4 0 -46 -28 -94 -62z"/>
<path d="M9027 12227 c-240 -360 -391 -686 -443 -953 -20 -103 -19 -281 1
-359 55 -212 200 -360 431 -437 57 -19 90 -23 184 -23 139 1 206 17 345 85
289 140 591 445 903 912 40 59 72 111 72 115 0 8 -187 83 -206 83 -6 0 -49
-58 -97 -129 -400 -590 -811 -898 -1106 -830 -116 26 -228 110 -276 206 -25
50 -30 72 -33 160 -2 56 1 132 7 168 37 210 196 554 393 847 l58 87 -59 33
c-46 25 -64 42 -80 75 -11 24 -25 43 -30 43 -5 0 -33 -37 -64 -83z"/>
<path d="M24639 11678 c0 -46 -2 -110 -4 -143 -2 -33 -6 -135 -9 -226 -4 -91
-8 -176 -10 -190 -3 -13 -7 -60 -10 -104 -10 -130 -36 -321 -62 -460 -30 -157
-34 -177 -39 -184 -2 -4 -6 -38 -10 -76 -36 -400 -87 -563 -219 -700 -118
-121 -262 -163 -613 -180 -301 -14 -496 186 -643 660 -54 172 -159 685 -227
1105 -8 52 -18 102 -21 110 -6 16 -27 -118 -37 -235 -3 -38 -8 -86 -10 -105
-18 -153 -25 -468 -14 -635 9 -129 30 -270 53 -350 23 -80 161 -475 227 -650
255 -675 553 -990 1061 -1120 123 -32 313 -44 398 -26 127 26 222 91 295 201
132 198 190 493 190 955 0 147 -11 414 -20 467 -2 13 -6 68 -10 123 -4 55 -8
107 -10 115 -1 8 -6 51 -9 95 -4 44 -9 91 -11 105 -2 14 -7 52 -10 85 -11 109
-90 755 -100 815 -2 14 -9 63 -15 110 -42 332 -64 457 -82 488 -11 17 -22 32
-24 32 -2 0 -4 -37 -5 -82z"/>
<path d="M15092 11582 c-91 -37 -162 -71 -162 -78 0 -7 -31 -106 -69 -221
-305 -924 -679 -1450 -1117 -1575 -117 -33 -266 -31 -399 5 -219 61 -398 178
-527 347 l-50 65 6 -385 c3 -212 8 -448 11 -525 3 -77 7 -216 10 -310 7 -229
17 -417 40 -790 41 -656 113 -1291 200 -1766 175 -957 419 -1504 769 -1727 55
-34 170 -79 228 -87 46 -7 59 -2 790 343 1217 573 1479 693 2008 915 85 36
272 121 415 190 315 151 1161 560 1228 594 l48 24 -74 49 c-40 27 -120 98
-178 158 -193 200 -300 430 -316 673 -14 225 62 457 222 676 79 107 298 323
425 417 58 43 108 81 113 85 4 4 -14 8 -40 10 -79 3 -169 20 -256 47 -81 25
-84 27 -187 132 -58 59 -125 137 -150 174 -25 37 -49 68 -54 68 -5 0 -111 -32
-235 -71 -237 -74 -978 -289 -997 -289 -35 0 -673 1043 -834 1360 -23 47 -46
90 -50 95 -11 14 -261 515 -298 595 -16 36 -39 88 -52 115 -12 28 -33 75 -47
105 -38 83 -150 358 -207 511 l-52 135 -162 -64z"/>
<path d="M37318 11496 c-54 -17 -98 -36 -98 -42 0 -6 13 -44 30 -83 16 -40 52
-138 79 -219 203 -607 182 -1006 -63 -1164 -136 -88 -293 -102 -423 -38 -83
41 -186 141 -262 255 -137 205 -276 572 -362 953 l-23 103 -31 -5 c-16 -3 -67
-8 -112 -12 -67 -5 -83 -10 -83 -23 0 -36 94 -391 140 -532 180 -544 404 -860
690 -973 105 -41 249 -48 370 -17 134 34 222 83 316 176 224 223 269 560 143
1073 -49 200 -185 584 -206 581 -4 -1 -52 -15 -105 -33z"/>
<path d="M33285 11398 c-126 -325 -264 -534 -401 -608 -43 -24 -50 -33 -95
-133 -55 -124 -56 -122 51 -115 242 18 472 286 658 768 65 167 68 151 -35 178
-48 12 -97 25 -109 28 -19 5 -26 -7 -69 -118z"/>
<path d="M10996 11378 c-13 -68 -18 -297 -7 -388 29 -258 128 -464 285 -591
84 -69 217 -134 304 -149 240 -43 449 110 607 443 53 113 139 359 151 434 l6
41 -103 8 c-57 5 -108 8 -112 9 -5 0 -32 -72 -62 -160 -62 -188 -98 -271 -158
-363 -118 -181 -231 -227 -380 -154 -226 111 -331 354 -313 718 l7 131 -103
26 c-57 15 -106 27 -109 27 -4 0 -9 -14 -13 -32z"/>
<path d="M33991 11293 c-80 -468 -95 -623 -96 -958 0 -315 10 -401 61 -555 52
-155 149 -287 252 -343 195 -106 466 -62 685 112 300 238 534 745 687 1484 16
81 30 157 30 167 0 19 -8 20 -114 20 l-113 0 -17 -87 c-97 -496 -255 -939
-428 -1196 -65 -98 -211 -237 -288 -274 -217 -106 -384 -53 -461 147 -45 116
-60 224 -66 450 -7 281 22 590 88 944 11 59 18 111 15 113 -5 5 -188 42 -212
43 -6 0 -16 -30 -23 -67z"/>
<path d="M14023 11267 l-103 -21 0 -70 c0 -214 -45 -468 -106 -593 -67 -140
-157 -203 -289 -203 -167 0 -254 81 -286 265 -18 105 0 343 38 494 l6 24 -119
-7 c-65 -4 -120 -9 -121 -10 -1 -1 -10 -47 -20 -101 -23 -139 -24 -404 0 -500
63 -256 240 -394 502 -395 242 0 423 136 523 395 62 159 89 317 99 573 5 144
4 172 -8 171 -8 -1 -60 -11 -116 -22z"/>
<path d="M22367 11237 c-35 -30 -40 -42 -68 -152 -36 -145 -133 -570 -159
-704 -23 -113 -96 -544 -104 -616 -39 -323 -51 -486 -51 -710 0 -369 52 -638
159 -825 24 -41 89 -165 145 -274 57 -110 123 -236 149 -280 328 -575 660
-836 1182 -931 63 -12 170 -19 318 -22 628 -15 932 108 1137 457 74 126 200
409 282 635 40 109 198 484 274 650 72 158 91 222 109 370 11 89 16 492 7 550
-3 17 -8 75 -12 130 -4 55 -8 107 -10 115 -1 8 -6 47 -9 85 -19 187 -125 850
-164 1023 -8 34 -23 54 -74 100 -89 80 -208 194 -301 287 l-79 80 6 -40 c33
-220 106 -857 135 -1176 69 -744 40 -1232 -95 -1584 -121 -314 -332 -507 -620
-567 -256 -52 -623 12 -917 162 -147 74 -252 149 -372 262 -260 247 -443 576
-644 1163 -34 99 -77 223 -96 275 -93 254 -130 487 -130 825 0 155 11 376 25
500 6 50 13 115 16 145 2 30 7 65 10 78 6 30 -4 27 -49 -11z"/>
<path d="M21786 10823 c-164 -110 -505 -317 -731 -443 -385 -215 -1038 -529
-1465 -706 -96 -40 -174 -77 -173 -83 2 -5 35 -79 74 -163 175 -380 381 -719
543 -896 29 -32 92 -124 141 -207 801 -1360 2012 -2274 3589 -2707 83 -23 159
-41 168 -40 26 1 381 145 566 229 1073 485 1907 1125 2530 1940 49 65 80 97
91 95 71 -15 91 -13 141 14 120 65 276 290 438 633 142 303 361 846 346 861
-5 5 -45 22 -89 38 -100 37 -433 179 -625 267 -418 191 -984 518 -1322 764
-32 23 -58 39 -58 35 0 -3 11 -72 25 -153 79 -470 109 -787 110 -1156 0 -424
-21 -551 -136 -798 -90 -194 -116 -255 -281 -667 -82 -206 -178 -434 -213
-505 -280 -581 -673 -795 -1460 -795 -294 0 -516 33 -742 111 -462 159 -803
475 -1115 1029 -128 228 -360 682 -384 753 -79 231 -107 447 -106 807 2 460
82 1042 236 1718 13 56 20 101 17 101 -3 -1 -55 -35 -115 -76z"/>
<path d="M33349 10397 c-47 -45 -118 -101 -157 -124 -64 -38 -83 -44 -169 -54
-91 -11 -312 -7 -403 7 -34 5 -36 4 -69 -58 -251 -462 -617 -984 -1012 -1443
-80 -93 -155 -178 -166 -188 -20 -17 -28 -17 -238 18 -120 19 -275 46 -344 60
-69 13 -191 36 -271 51 -365 67 -1037 223 -1332 310 -13 4 -8 -14 22 -83 151
-354 184 -647 101 -891 -40 -116 -84 -185 -176 -277 -247 -247 -563 -343 -887
-269 l-27 6 54 -109 c64 -129 119 -287 139 -401 7 -46 16 -85 17 -86 16 -13
409 -272 591 -389 1478 -951 2654 -1518 3439 -1661 348 -64 615 -52 839 35 84
32 82 31 204 234 110 185 176 341 311 735 193 564 378 905 735 1359 52 67 125
160 162 207 219 283 417 858 604 1754 18 91 34 169 34 174 0 5 -37 -27 -83
-71 -103 -99 -181 -152 -313 -215 -133 -62 -237 -87 -394 -95 -327 -15 -613
83 -805 277 -190 190 -291 435 -324 780 -10 97 -6 464 4 481 12 18 -1 7 -86
-74z"/>
<path d="M19125 9309 c-179 -49 -382 -64 -482 -34 -51 15 -52 15 -162 -24 -61
-22 -116 -43 -122 -47 -16 -9 75 -90 135 -119 153 -74 385 -75 676 -4 130 32
124 21 76 144 -22 57 -43 104 -46 104 -3 -1 -36 -10 -75 -20z"/>
<path d="M28296 9182 c-12 -20 -77 -203 -74 -211 2 -4 49 -45 105 -89 298
-240 417 -460 339 -629 -30 -64 -97 -138 -150 -165 -58 -30 -161 -22 -247 19
-77 37 -182 110 -267 188 -35 32 -64 56 -66 54 -2 -2 -27 -49 -57 -105 l-53
-100 43 -40 c129 -117 299 -218 416 -249 83 -21 209 -20 277 4 140 48 262 169
325 323 34 83 42 216 19 306 -55 216 -238 434 -563 672 -23 17 -44 27 -47 22z"/>
<path d="M19365 8557 c-675 -433 -996 -817 -946 -1131 22 -136 115 -275 245
-362 63 -43 176 -91 261 -110 128 -30 382 -26 546 9 171 36 334 87 514 159
133 54 352 152 363 162 3 4 -137 186 -143 186 -1 0 -45 -20 -96 -44 -222 -105
-475 -193 -681 -238 -82 -17 -136 -22 -263 -22 -146 0 -167 2 -236 25 -177 60
-283 172 -282 298 1 118 80 250 252 421 131 130 282 248 516 402 99 66 181
121 183 123 3 3 -96 205 -101 205 -1 0 -60 -37 -132 -83z"/>
<path d="M27368 7458 c-35 -46 -67 -88 -71 -95 -4 -7 18 -51 54 -105 115 -175
170 -307 171 -412 1 -75 -17 -119 -67 -164 -81 -76 -188 -114 -318 -114 -125
0 -227 31 -370 114 l-68 40 -67 -63 c-37 -34 -76 -70 -86 -80 -18 -17 -17 -19
50 -62 215 -139 439 -202 624 -177 290 40 494 204 528 424 30 195 -69 453
-283 733 l-33 43 -64 -82z"/>
<path d="M20613 6768 c-43 -68 -114 -195 -158 -283 -231 -456 -254 -808 -69
-1051 85 -112 241 -214 384 -251 83 -21 225 -21 310 2 248 64 509 289 758 653
l63 92 -93 60 c-51 33 -96 59 -100 58 -3 -2 -41 -52 -83 -113 -302 -432 -590
-608 -841 -514 -114 43 -203 119 -252 215 -105 206 -1 574 291 1032 l40 63
-79 80 c-43 43 -82 79 -86 79 -3 0 -42 -55 -85 -122z"/>
<path d="M25933 6103 l-91 -65 34 -101 c133 -389 173 -752 109 -970 -39 -131
-125 -234 -245 -291 -58 -28 -75 -31 -155 -31 -85 0 -96 2 -168 38 -87 43
-207 153 -291 267 -68 91 -177 279 -238 407 -28 59 -52 109 -53 110 -4 6 -205
-92 -205 -100 0 -17 161 -325 215 -411 197 -313 403 -490 624 -537 79 -16 223
-7 301 20 142 49 260 138 339 256 142 213 173 506 96 905 -37 189 -149 560
-171 566 -5 2 -50 -27 -101 -63z"/>
<path d="M22394 5594 c-3 -31 -4 -167 -1 -303 5 -265 23 -407 72 -568 101
-331 317 -516 605 -517 297 -1 527 210 699 641 45 115 95 272 88 280 -3 3 -53
18 -111 33 l-105 28 -31 -100 c-101 -326 -249 -552 -407 -626 -48 -21 -72 -26
-133 -25 -229 2 -363 171 -426 533 -10 61 -18 184 -21 340 l-6 245 -101 48
c-56 26 -105 47 -108 47 -4 0 -10 -25 -14 -56z"/>
</g>
</svg>
